<svg viewBox="0 0 352.5 330.8" xmlns="http://www.w3.org/2000/svg" fill="white"><path d="M178.5 330.9c-0.9 0-1.8 0-2.7-0.1h0c-0.6 0-1.2 0.1-1.8 0.1 -20.9 0-34.3-9.5-47.3-18.6 -9-6.3-17.4-12.3-27.3-14 -4.9-0.8-9.7-1.2-14.4-1.2 -8.4 0-15.1 1.3-19.9 2.2 -2.9 0.6-5.5 1.1-7.4 1.1 -2 0-4.2-0.4-5.2-3.7 -0.8-2.8-1.4-5.5-2-8.2 -1.5-6.8-2.5-11-5.4-11.4 -33.1-5.1-42.6-12.1-44.7-17C0.2 259.4 0 258.7 0 258c-0.1-1.9 1.2-3.6 3.1-3.9 50.9-8.4 73.8-60.4 74.7-62.6 0-0.1 0.1-0.1 0.1-0.2 3.1-6.3 3.7-11.8 1.8-16.3 -3.5-8.2-14.9-11.9-22.4-14.2 -1.8-0.6-3.6-1.1-5-1.7 -15.1-6-16.3-12.1-15.7-15.2 1-5.3 8.1-9 13.8-9 1.6 0 3 0.3 4.1 0.8 6.8 3.2 12.9 4.8 18.1 4.8 7.3 0 10.5-3.1 10.8-3.5 -0.2-3.4-0.4-7-0.6-10.8 -1.5-24.1-3.4-54 4.2-71.1C109.9 4 158.3 0.1 172.6 0.1c0.4 0 6.3-0.1 6.3-0.1l0.8 0c14.3 0 62.8 4 85.7 55.2 7.6 17.1 5.7 47 4.2 71.1l-0.1 1c-0.2 3.3-0.4 6.6-0.6 9.7 0.4 0.4 3.3 3.2 9.9 3.4h0c5-0.2 10.8-1.8 17.1-4.8 1.9-0.9 3.9-1 5.3-1 2.1 0 4.3 0.4 6.1 1.2l0.1 0c5.1 1.8 8.5 5.4 8.5 9.1 0.1 3.5-2.6 8.8-15.8 14 -1.4 0.5-3.1 1.1-5 1.7 -7.6 2.4-18.9 6-22.4 14.2 -1.9 4.5-1.3 10 1.8 16.3 0 0.1 0.1 0.1 0.1 0.2 0.9 2.2 23.8 54.2 74.7 62.6 1.9 0.3 3.2 2 3.1 3.9 0 0.7-0.2 1.4-0.5 2.1 -2.1 4.9-11.6 11.9-44.7 17 -2.7 0.4-3.8 3.9-5.4 11.3 -0.6 2.7-1.2 5.3-2 8.1 -0.7 2.4-2.2 3.5-4.7 3.5h-0.4c-1.8 0-4.3-0.3-7.4-0.9 -5.6-1.1-11.9-2.1-19.9-2.1 -4.7 0-9.5 0.4-14.4 1.2 -9.9 1.7-18.4 7.6-27.3 13.9C212.8 321.4 199.4 330.9 178.5 330.9Z"/></svg>