<svg viewBox="0 0 16.1 13.1" xmlns="http://www.w3.org/2000/svg" fill="white"><path d="M5.1 10.2C3.3 10.1 2.3 8.9 2 7.9 2.5 8 2.9 8 3.4 7.9l0 0C2.5 7.7 1.8 7.2 1.3 6.4 1 5.9 0.8 5.3 0.8 4.7c0.5 0.2 0.9 0.4 1.5 0.4 -0.7-0.5-1.2-1.2-1.4-2C0.7 2.3 0.8 1.5 1.3 0.7c1.8 2.1 4 3.2 6.8 3.4 0-0.1 0-0.2-0.1-0.4C7.9 2.9 8.1 2.2 8.5 1.6 9 0.8 9.8 0.3 10.7 0.1c1.1-0.2 2.1 0.1 2.9 0.9 0.1 0.1 0.1 0.1 0.2 0.1 0.7-0.1 1.3-0.4 1.9-0.7l0 0 0 0c-0.3 0.8-0.7 1.4-1.4 1.8 0.6-0.1 1.2-0.2 1.8-0.5l0 0C16 1.9 15.9 2 15.7 2.2 15.4 2.6 15 3 14.5 3.3l-0.1 0.1c0 0.5 0 1-0.1 1.5 -0.1 1-0.4 2-0.8 2.9 -0.4 1-1 1.8-1.8 2.6 -1.3 1.3-2.8 2.1-4.5 2.5C6.6 13 6 13.1 5.4 13.1c-1.9 0.1-3.6-0.4-5.3-1.4 0 0 0 0-0.1-0.1 1.1 0.1 2.2 0 3.3-0.5C4 10.9 4.6 10.6 5.1 10.2Z"/></svg>
