<?xml version="1.0" encoding="utf-8"?>
<!-- Generator: Adobe Illustrator 22.0.0, SVG Export Plug-In . SVG Version: 6.00 Build 0)  -->
<svg version="1.1" id="Layer_1" xmlns="http://www.w3.org/2000/svg" xmlns:xlink="http://www.w3.org/1999/xlink" x="0px" y="0px"
	 viewBox="0 0 512 512" style="enable-background:new 0 0 512 512;" xml:space="preserve">
<style type="text/css">
	.st0{fill:#FFFFFF;}
</style>
<g>
	<path class="st0" d="M32.9,512.3c0-14.7,0.4-28.5-0.2-42.2c-0.3-6.4,1.9-10,7.1-13.7c31.7-22.6,63.1-45.6,94.6-68.5
		c1.1-0.8,2.1-1.6,3.4-2.7c-11-7.8-21.8-15.5-32.5-23.1c-23.2-16.4-46.4-32.9-69.5-49.4c-1.3-0.9-2.7-3-2.6-4.3
		c1.8-15.1,3.9-30.1,6-46.1c58,41,115.4,81.7,173.4,122.7C152.7,427.5,93.2,469.6,32.9,512.3z"/>
	<path class="st0" d="M374.1,385.4c5.5,4,10.6,7.7,15.7,11.4c28.2,20.3,56.4,40.6,84.7,60.9c2.1,1.5,3,3,2.9,5.6
		c-0.1,16-0.1,32-0.1,49.1c-59.5-42.7-118.3-84.9-177.4-127.3c57.8-40.9,115.3-81.6,173.3-122.7c1.1,7.9,2.1,15.2,3.1,22.5
		c0.9,7.1,1.5,14.2,2.8,21.2c0.7,3.7-0.6,5.5-3.4,7.5c-33.1,23.2-66.1,46.6-99.1,69.9C376,384,375.3,384.5,374.1,385.4z"/>
	<path class="st0" d="M424.1,512c-11.4,0-21.7,0-32.1,0c-12.3,0-24.5,0.2-36.8-0.1c-2.7-0.1-5.8-1.1-8.1-2.6
		c-29.3-20.9-58.5-41.9-87.7-62.9c-0.9-0.6-1.8-1.2-2.8-1.9c-16.2,11.5-32.4,22.9-48.6,34.3c-14.7,10.4-29.5,20.9-44.3,31.2
		c-1.5,1-3.4,1.9-5.1,1.9c-22.8,0.1-45.6,0.1-68.4,0.1c-0.5,0-1-0.1-2.1-0.2c0.9-0.9,1.5-1.5,2.2-2C145,471,199.7,432.3,254.2,393.5
		c2.1-1.5,3.4-1.1,5.2,0.2c45.5,32.7,91.1,65.4,136.6,98c8.1,5.8,16.2,11.6,24.3,17.5C421.5,509.9,422.5,510.7,424.1,512z"/>
	<path class="st0" d="M235.6,27.3c0-5.9,0-11.4,0-17.6c5.4,1.8,10.5,3.4,16.6,5.5c-2.4-5.5-4.5-10.3-6.7-15.5c7.6,0,14.8,0,22.5,0
		c-2.1,5-4.2,9.8-6.6,15.4c5.9-1.9,11.1-3.6,16.7-5.4c0,6,0,11.5,0,17.6c-5.6-1.2-11-2.4-16.7-3.7c-0.2,1.9-0.4,3.6-0.6,5.5
		c-2.7,0-5.3,0-8.2,0c-0.1-1.8-0.2-3.3-0.3-5.6C246.8,24.8,241.4,26,235.6,27.3z"/>
	<path class="st0" d="M256.9,33.2c5.5,0,10,4.5,10.1,10c0,5.6-4.6,10.3-10.2,10.3c-5.7-0.1-10-4.6-9.9-10.5
		C246.9,37.4,251.2,33.2,256.9,33.2z"/>
	<path class="st0" d="M428.4,246.7c-1.9-15.9-3.9-31.7-5.8-47.6c5.5-1.2,7.4-3,7.2-6.8c-0.2-3.7-2.4-5.4-7.6-5.9
		c0.3-5.4-1.5-8.4-5.5-8.7c-3.9-0.3-5.9,2.2-6.8,8.6c-3.6,0.6-7,1.6-7,6.3c0,4.7,3.3,5.9,7.5,6.4c-1.7,15.2-3.5,30.3-5.2,45.5
		c-16.9-4.5-33.4-8.8-49.7-13.1c0-7.7,0-15,0-22.7c3.2,0,6.1,0,9.2,0c0-4.2,0-8,0-12.3c-3.3,0-6.4,0.2-9.4-0.1
		c-1.1-0.1-2.9-1.2-3.1-2.1c-1.6-8.8-2.9-17.7-4.3-26.8c4.2-0.3,7-2,7.2-6.3c0.1-3.4-2.5-5.4-7.8-6.4c0.1-5.6-1.8-8.3-5.7-8.5
		c-4-0.1-6.2,3-6.3,8.8c-4.7,0.5-7.2,2.5-7.4,5.9c-0.2,3.3,2.1,5.5,7.5,6.7c-1.5,7.9-3,15.8-4.7,23.6c-0.1,0.7-1.2,1.6-1.9,1.6
		c-6.8,0.1-13.7,0.1-20.4,0.1c0-2.3,0-4.2,0-6.1c2.4-0.2,4.5-0.3,6.8-0.4c0-3.1-0.1-5.8,0-8.4c0.2-2.7-0.9-3.5-3.5-3.4
		c-4.5,0.2-9,0-13.9,0c0-13.9,0.1-27.1-0.1-40.3c0-3.2,0.9-5,3.7-6.3c1.4-0.7,3.5-2.1,3.5-3.3c0.3-8.9,0.2-17.7,0.2-26.6
		c-0.4,0.2-0.8,0.5-1.2,0.7c-1.7-1.7-3.9-3.1-5.1-5.2c-8.6-14.4-20.1-26-34.1-35c-4.7-3-10.7-3-15-0.4c-14.3,8.6-26,20.1-34.1,34.8
		c-1.6,2.9-2.8,5.5-7.1,4.5c0,8.3,0.2,16.3-0.1,24.2c-0.1,3.2,0.9,5.1,3.8,6.2c2.9,1.1,3.8,3.1,3.7,6.2c-0.2,11.3-0.1,22.7-0.1,34
		c0,2,0,4,0,6.3c-5.1,0-9.7-0.1-14.3,0.1c-1.1,0.1-2.8,1.2-2.9,2.1c-0.3,3.2-0.1,6.4-0.1,9.7c2.6,0.2,4.7,0.4,6.9,0.6
		c0,2.1,0,3.9,0,6c-6.8,0-13.4,0.1-20-0.1c-0.8,0-2.1-0.9-2.3-1.6c-1.6-7.9-3-15.8-4.5-23.7c5.2-1.4,6.9-3.2,6.7-6.9
		c-0.2-3.7-2.2-5.2-7.6-6c0.5-4.9-1.3-8-5.1-8.5c-4-0.6-6.2,2.1-7,8.6c-4.9,0.8-7,2.6-7.1,6.1c-0.1,3.6,1.7,5.4,7,6.6
		c-1.2,8.9-2.4,17.8-3.8,26.6c-0.1,0.9-1.9,2.1-3,2.2c-3.1,0.3-6.3,0.1-9.5,0.1c0,4.5,0,8.2,0,12.5c3.2,0,6.2,0,9.3,0
		c0,7.8,0,15.1,0,22.5c-16.1,4.3-32.2,8.6-48.7,13c-2.2-15.6-4.3-30.6-6.4-45.5c5.5-1.1,7.6-3.1,7.4-6.8c-0.2-3.6-2.4-5.3-7.7-5.9
		c0.6-5.3-1.2-8.3-5.2-8.6c-4.2-0.4-6,2-6.8,8.7c-4.8,0.6-6.8,2.1-7.1,5.6c-0.3,3.9,1.4,5.5,7.4,7.3c-2.2,18.3-4.3,36.6-6.7,54.9
		c-0.3,2.4,0.2,3.6,2.1,5c28.4,19.9,56.7,39.8,85,59.8c1,0.7,2.1,1.4,3.1,2c3.6-7.8,6.8-15.4,10.6-22.7c16.1-30.8,37.9-56.5,67-75.9
		c3.3-2.2,5.7-2.1,9,0c26.9,17.2,47.9,40,63.3,67.9c5.3,9.6,9.6,19.8,14.4,30c8-5.7,16.3-11.5,24.5-17.3c21-14.9,42-29.8,63-44.6
		c2.2-1.6,3.5-3,2.6-5.9C428.5,250.6,428.7,248.6,428.4,246.7z M252.9,69.8c-0.5,9.5-0.8,18.8-1.4,28.1c-0.2,2.7-1.9,3.9-4.7,3.7
		c-4.4-0.2-8.9,0-13.4,0C230.6,91.9,242.2,72,252.9,69.8z M273.6,174.3c-11.4,0-22.2,0-33.6,0c0-3.8,0-7.4,0-10.9
		c0-8.6,0-17.2,0-25.8c0-7.6,3.1-12.1,10.4-14.3c6.7-2.1,13.2-1.4,18.6,3.1c2.1,1.7,4.3,4.8,4.4,7.3
		C273.9,147,273.6,160.4,273.6,174.3z M280.4,101.6c-4.8,0-9.5,0.2-14.2-0.1c-1.3-0.1-3.3-1.6-3.5-2.8c-0.8-3.9-1.2-7.9-1.4-11.9
		c-0.2-5.5-0.1-11-0.1-16.5C269.7,70.7,283.4,90.4,280.4,101.6z"/>
</g>
</svg>
