<?xml version="1.0" encoding="utf-8"?>
<!-- Generator: Adobe Illustrator 22.0.0, SVG Export Plug-In . SVG Version: 6.00 Build 0)  -->
<svg version="1.1" id="Layer_1" xmlns="http://www.w3.org/2000/svg" xmlns:xlink="http://www.w3.org/1999/xlink" x="0px" y="0px"
	 viewBox="0 0 1494.2 200.5" style="enable-background:new 0 0 1494.2 200.5;" xml:space="preserve">
<style type="text/css">
	.st0{fill:#FFFFFF;}
	.st1{fill:#F6951E;}
	.st2{fill:#F26122;}
	.st3{fill:#EA1D25;}
	.st4{fill:#F69E1E;}
	.st5{fill:#2598D5;}
	.st6{fill:#6E6CB1;}
	.st7{fill:#231F20;}
	.st8{fill:#FAA71B;}
	.st9{fill:#2E6FB7;}
</style>
<g transform="translate(1565.7 -1106.8)">
	<g transform="matrix(3.1437 0 0 3.1437 -4835.7 -1027.6)">
		<g transform="matrix(1.25 0 0 -1.25 1102.5 727.74)">
			<path class="st0" d="M0,0v-0.1h0.1c0,0,0,0,0.1,0l0,0l0,0C0.1,0,0.1,0,0,0L0,0z M0.1,0.1h0.1V0v-0.1H0.1l0.1-0.1H0.1H0l0,0v-0.1
				h-0.1v0.4L0.1,0.1z M0.1-0.5h0.1c0,0,0.1,0,0.1,0.1s0.1,0.1,0.1,0.1v0.1v0.1c0,0,0,0.1-0.1,0.1S0.2,0.1,0.2,0.2H0.1H0
				c0,0-0.1,0-0.1-0.1S-0.2,0-0.2,0v-0.1v-0.1c0,0,0-0.1,0.1-0.1S0-0.4,0.1-0.5C0-0.5,0-0.5,0.1-0.5 M0.1,0.3c0.1,0,0.1,0,0.2,0
				s0.1-0.1,0.1-0.1l0.1-0.1c0,0,0-0.1,0-0.2s0-0.1,0-0.2S0.4-0.4,0.4-0.4L0.3-0.5c-0.1,0-0.1,0-0.2,0s-0.1,0-0.2,0
				s-0.1,0.1-0.1,0.1l-0.1,0.1c0,0,0,0.1,0,0.2s0,0.1,0,0.2s0.1,0.1,0.1,0.1l0.1,0.1C-0.1,0.3,0,0.3,0.1,0.3 M-38.9,1.8
				c0,0.7,0.5,1.3,1.3,1.3s1.3-0.6,1.3-1.3s-0.5-1.3-1.3-1.3C-38.4,0.4-38.9,1-38.9,1.8 M-35.5,1.8v2.1h-0.9V3.3
				C-36.7,3.7-37.2,4-37.8,4c-1.2,0-2.1-0.9-2.1-2.2s0.9-2.2,2.1-2.2c0.6,0,1,0.2,1.3,0.6v-0.5h0.9L-35.5,1.8L-35.5,1.8z M-4.8,1.8
				c0,0.7,0.5,1.3,1.3,1.3s1.3-0.6,1.3-1.3s-0.5-1.3-1.3-1.3C-4.4,0.4-4.8,1-4.8,1.8 M-1.5,1.8v3.8h-0.9V3.3C-2.7,3.7-3.1,4-3.7,4
				c-1.2,0-2.1-1-2.1-2.2c0-1.3,0.9-2.2,2.1-2.2c0.6,0,1,0.2,1.3,0.6v-0.5h0.9C-1.5-0.3-1.5,1.8-1.5,1.8z M-24.3,3.1
				c0.6,0,1-0.4,1.1-1h-2.2C-25.3,2.7-24.9,3.1-24.3,3.1 M-24.2,4c-1.2,0-2.1-0.9-2.1-2.2s0.9-2.2,2.1-2.2c0.6,0,1.2,0.2,1.7,0.6
				l-0.4,0.7c-0.4-0.3-0.8-0.4-1.2-0.4c-0.6,0-1.1,0.3-1.2,1h3.1c0,0.1,0,0.2,0,0.3C-22.3,3.1-23.1,4-24.2,4 M-13.3,1.8
				c0,0.7,0.5,1.3,1.3,1.3s1.3-0.6,1.3-1.3s-0.5-1.3-1.3-1.3C-12.8,0.4-13.3,1-13.3,1.8 M-9.9,1.8v2.1h-0.9V3.3
				C-11.1,3.7-11.5,4-12.1,4c-1.2,0-2.1-0.9-2.1-2.2s0.9-2.2,2.1-2.2c0.6,0,1,0.2,1.3,0.6v-0.5h0.9C-9.9-0.3-9.9,1.8-9.9,1.8z
				 M-18.4,1.8c0-1.3,0.9-2.2,2.2-2.2c0.6,0,1,0.1,1.5,0.5l-0.4,0.7c-0.3-0.2-0.7-0.4-1.1-0.4c-0.7,0-1.3,0.5-1.3,1.3S-17,3-16.2,3
				c0.4,0,0.8-0.1,1.1-0.4l0.4,0.7C-15.1,3.8-15.5,4-16.2,4C-17.5,4-18.4,3-18.4,1.8 M-6.7,4c-0.5,0-0.9-0.2-1.1-0.6v0.5h-0.9v-4.2
				h0.9V2c0,0.7,0.3,1.1,0.9,1.1c0.2,0,0.4,0,0.6-0.1L-6,3.8C-6.3,3.9-6.5,4-6.7,4 M-31,3.5c-0.4,0.3-1,0.4-1.7,0.4
				c-1.1,0-1.7-0.5-1.7-1.3c0-0.7,0.5-1.1,1.4-1.2l0.4-0.1c0.5-0.1,0.7-0.2,0.7-0.4c0-0.3-0.3-0.5-1-0.5c-0.6,0-1.1,0.2-1.4,0.4
				l-0.4-0.7c0.5-0.4,1.1-0.5,1.8-0.5c1.2,0,1.9,0.6,1.9,1.4c0,0.7-0.5,1.1-1.5,1.2l-0.4,0.1c-0.4,0.1-0.7,0.1-0.7,0.4
				s0.3,0.5,0.8,0.5s1-0.2,1.3-0.4L-31,3.5z M-19.3,4c-0.5,0-0.9-0.2-1.1-0.6v0.5h-0.9v-4.2h0.9V2c0,0.7,0.3,1.1,0.9,1.1
				c0.2,0,0.4,0,0.6-0.1l0.3,0.9C-18.9,3.9-19.1,4-19.3,4 M-27.1,3.9h-1.5v1.3h-0.9V3.9h-0.8V3h0.8V1.1c0-1,0.4-1.5,1.5-1.5
				c0.4,0,0.8,0.1,1.1,0.3l-0.3,0.8c-0.3-0.2-0.6-0.2-0.8-0.2c-0.5,0-0.6,0.3-0.6,0.7V3h1.5L-27.1,3.9z M-40.6-0.3v2.6
				c0,1-0.6,1.7-1.6,1.7c-0.5,0-1.1-0.2-1.5-0.7C-44,3.7-44.5,4-45.1,4c-0.4,0-0.9-0.1-1.2-0.6v0.5h-0.9v-4.2h0.9V2
				c0,0.7,0.4,1.1,1,1.1s0.9-0.4,0.9-1.1v-2.3h0.9V2c0,0.7,0.4,1.1,1,1.1s0.9-0.4,0.9-1.1v-2.3L-40.6-0.3z"/>
		</g>
		<g transform="matrix(1.25 0 0 -1.25 1103.2 710.77)">
			<path class="st1" d="M0,0v0.6h-0.2l-0.2-0.4l-0.2,0.4h-0.2V0h0.1v0.5L-0.4,0h0.1l0.2,0.4V0H0z M-1,0v0.5h0.2v0.1h-0.5V0.5h0.2
				L-1,0L-1,0z"/>
		</g>
		<path class="st2" d="M1080.6,714.1h-17.2v-30.9h17.2V714.1z"/>
		<g transform="matrix(1.25 0 0 -1.25 1064.5 698.59)">
			<path class="st3" d="M0,0c0,5,2.3,9.5,6,12.4c-2.7,2.1-6.1,3.4-9.7,3.4c-8.7,0-15.7-7-15.7-15.7s7-15.7,15.7-15.7
				c3.7,0,7,1.3,9.7,3.4C2.3-9.5,0-5,0,0"/>
		</g>
		<g transform="matrix(1.25 0 0 -1.25 1103.8 698.59)">
			<path class="st4" d="M0,0c0-8.7-7-15.7-15.7-15.7c-3.7,0-7,1.3-9.7,3.4c3.7,2.9,6,7.3,6,12.4s-2.3,9.5-6,12.4
				c2.7,2.1,6.1,3.4,9.7,3.4C-7.1,15.7,0,8.7,0,0"/>
		</g>
	</g>
</g>
<g transform="translate(-1837.7 -1267.9)">
	<g transform="matrix(3.1437 0 0 3.1437 -1661.1 -866.42)">
		<g transform="matrix(1.25 0 0 -1.25 1176 710.77)">
			<path class="st5" d="M65.6,0v0.6h-0.2l-0.2-0.4L65,0.6h-0.2V0H65v0.5l0.2-0.4h0.1l0.2,0.4V0H65.6z M64.6,0v0.5h0.2v0.1h-0.5V0.5
				h0.2V0H64.6z"/>
		</g>
		<path class="st6" d="M1235.3,714h-17.2v-30.9h17.2V714z"/>
		<g transform="matrix(1.25 0 0 -1.25 1137.3 698.59)">
			<path class="st3" d="M65.6,0c0,5,2.3,9.5,6,12.4c-2.7,2.1-6.1,3.4-9.7,3.4c-8.7,0-15.7-7-15.7-15.7s7-15.7,15.7-15.7
				c3.7,0,7,1.3,9.7,3.4C67.9-9.5,65.6-5,65.6,0"/>
		</g>
		<g transform="matrix(1.25 0 0 -1.25 1176.6 698.59)">
			<path class="st5" d="M65.6,0c0-8.7-7-15.7-15.7-15.7c-3.7,0-7,1.3-9.7,3.4c3.7,2.9,6,7.3,6,12.4s-2.3,9.5-6,12.4
				c2.7,2.1,6.1,3.4,9.7,3.4C58.5,15.7,65.6,8.7,65.6,0"/>
		</g>
		<g transform="matrix(1.25 0 0 -1.25 1159.2 722.78)">
			<path class="st0" d="M65.6,0c0.2,0,0.4,0,0.6-0.1L65.9-1c-0.2,0.1-0.4,0.1-0.6,0.1c-0.6,0-0.9-0.4-0.9-1.1v-2.3h-0.9v4.2h0.9
				v-0.5C64.7-0.2,65,0,65.6,0 M62.2-0.9h-1.5v-1.9c0-0.4,0.1-0.7,0.6-0.7c0.2,0,0.5,0.1,0.8,0.2l0.3-0.8c-0.3-0.2-0.7-0.3-1.1-0.3
				c-1.1,0-1.4,0.6-1.4,1.5V-1H59v0.8h0.8v1.3h0.9v-1.3h1.5V-0.9z M50.6-1.8c0.1,0.6,0.5,1,1.1,1s1-0.4,1.1-1H50.6z M53.7-2.2
				c0,1.3-0.8,2.2-2,2.2s-2.1-0.9-2.1-2.2s0.9-2.2,2.1-2.2c0.6,0,1.2,0.2,1.7,0.6L53-3.1c-0.3-0.3-0.8-0.4-1.2-0.4
				c-0.6,0-1.1,0.3-1.2,1h3.1C53.7-2.4,53.7-2.3,53.7-2.2 M57.7-1.2c-0.3,0.2-0.8,0.4-1.3,0.4S55.6-1,55.6-1.3s0.3-0.4,0.7-0.4
				l0.4-0.1c0.9-0.1,1.5-0.5,1.5-1.2c0-0.8-0.7-1.4-1.9-1.4c-0.7,0-1.3,0.2-1.8,0.5l0.4,0.7c0.3-0.2,0.8-0.4,1.4-0.4
				c0.6,0,1,0.2,1,0.5c0,0.2-0.2,0.4-0.7,0.4l-0.4,0.1c-0.9,0.1-1.4,0.6-1.4,1.2c0,0.8,0.7,1.3,1.7,1.3c0.7,0,1.3-0.1,1.7-0.4
				L57.7-1.2z M68.9-0.9c-0.2,0-0.4,0-0.5-0.1c-0.2-0.1-0.3-0.2-0.4-0.3c-0.1-0.1-0.2-0.3-0.3-0.4S67.6-2,67.6-2.2s0-0.4,0.1-0.5
				S67.9-3,68-3.1c0.1-0.1,0.3-0.2,0.4-0.3c0.2-0.1,0.3-0.1,0.5-0.1s0.4,0,0.5,0.1c0.2,0.1,0.3,0.2,0.4,0.3s0.2,0.3,0.3,0.4
				c0.1,0.2,0.1,0.3,0.1,0.5s0,0.4-0.1,0.5c-0.1,0.2-0.2,0.3-0.3,0.4C69.7-1.1,69.6-1,69.4-1C69.2-0.9,69.1-0.9,68.9-0.9 M68.9,0
				c0.3,0,0.6-0.1,0.9-0.2s0.5-0.3,0.7-0.5s0.4-0.4,0.5-0.7s0.2-0.6,0.2-0.9S71.1-2.8,71-3.1s-0.3-0.5-0.5-0.7s-0.4-0.4-0.7-0.5
				c-0.3-0.1-0.6-0.2-0.9-0.2S68.3-4.4,68-4.2c-0.3,0.1-0.5,0.3-0.7,0.5S66.9-3.3,66.8-3s-0.2,0.6-0.2,0.9s0.1,0.6,0.2,0.9
				s0.3,0.5,0.5,0.7S67.7-0.1,68,0C68.3,0,68.6,0,68.9,0 M45.3-2.2c0,0.7,0.5,1.3,1.3,1.3s1.3-0.6,1.3-1.3s-0.5-1.3-1.3-1.3
				C45.7-3.5,45.3-2.9,45.3-2.2 M48.6-2.2v2.1h-0.9v-0.5C47.4-0.2,47,0,46.4,0c-1.2,0-2.1-0.9-2.1-2.2s0.9-2.2,2.1-2.2
				c0.6,0,1,0.2,1.3,0.6v-0.5h0.9L48.6-2.2L48.6-2.2z M43.5-4.3v2.6c0,1-0.6,1.7-1.6,1.7c-0.5,0-1.1-0.2-1.5-0.7
				C40.1-0.3,39.7,0,39,0c-0.4,0-0.9-0.1-1.2-0.6v0.5h-0.9v-4.2h0.9V-2c0,0.7,0.4,1.1,1,1.1s0.9-0.4,0.9-1.1v-2.3h0.9V-2
				c0,0.7,0.4,1.1,1,1.1s0.9-0.4,0.9-1.1v-2.3H43.5z"/>
		</g>
		<g transform="matrix(1.25 0 0 -1.25 1167.4 727.74)">
			<path class="st7" d="M65.6,0v-0.1h0.1c0,0,0,0,0.1,0l0,0l0,0C65.7,0,65.7,0,65.6,0L65.6,0z M65.7,0.1L65.7,0.1L65.7,0.1l0.1-0.2
				h-0.1l0.1-0.1h-0.1l-0.1,0.1l0,0v-0.1h-0.1v0.4L65.7,0.1z M65.6-0.4L65.6-0.4c0.1,0,0.2,0,0.2,0.1s0.1,0.1,0.1,0.1v0.1V0
				c0,0,0,0.1-0.1,0.1s-0.1,0.1-0.1,0.1h-0.1h-0.1c0,0-0.1,0-0.1-0.1s-0.1,0-0.1-0.1v-0.1v-0.1c0,0,0-0.1,0.1-0.1S65.5-0.4,65.6-0.4
				L65.6-0.4 M65.6,0.3c0.1,0,0.1,0,0.2,0s0.1-0.1,0.1-0.1C66,0.1,66,0.1,66,0c0,0,0-0.1,0-0.2s0-0.1,0-0.2s0,0-0.1,0l-0.1-0.1
				c-0.1,0-0.1,0-0.2,0s-0.1,0-0.2,0s-0.1,0.1-0.1,0.1l-0.1,0.1c0,0,0,0.1,0,0.2s0,0.1,0,0.2s0.1,0.1,0.1,0.1l0.1,0.1
				C65.5,0.3,65.6,0.3,65.6,0.3"/>
		</g>
	</g>
</g>
<g id="g4158" transform="matrix(4.4299631,0,0,4.4299631,-81.165783,-105.04783)">
	<polygon id="polygon9" class="st0" points="166.8,49.6 160.6,49.6 164.5,25.8 170.6,25.8 	"/>
	<path id="path11" class="st0" d="M189.1,26.4c-1.2-0.5-3.1-1-5.5-1c-6.1,0-10.3,3.2-10.4,7.9c-0.1,3.4,3.1,5.3,5.4,6.5
		c2.4,1.2,3.2,1.9,3.2,3c0,1.6-1.9,2.3-3.7,2.3c-2.5,0-3.8-0.4-5.8-1.3l-0.8-0.4l-0.9,5.3c1.4,0.7,4.1,1.2,6.9,1.3
		c6.5,0,10.7-3.2,10.7-8.1c0-2.7-1.6-4.8-5.2-6.5c-2.2-1.1-3.5-1.8-3.5-2.9c0-1,1.1-2,3.5-2c2-0.1,3.5,0.4,4.6,0.9l0.6,0.3
		L189.1,26.4L189.1,26.4z"/>
	<path id="path13" class="st0" d="M197.2,41.2c0.5-1.4,2.5-6.7,2.5-6.7c0,0.1,0.5-1.4,0.8-2.3l0.4,2c0,0,1.2,5.7,1.4,6.9
		C201.4,41.2,198.5,41.2,197.2,41.2L197.2,41.2z M204.8,25.8H200c-1.5,0-2.6,0.4-3.2,2l-9.1,21.8h6.5c0,0,1.1-2.9,1.3-3.6
		c0.7,0,7,0,7.9,0c0.2,0.8,0.7,3.6,0.7,3.6h5.7L204.8,25.8L204.8,25.8L204.8,25.8z"/>
	<path id="path15" class="st0" d="M155.5,25.8l-6,16.2l-0.7-3.3c-1.1-3.8-4.6-7.9-8.5-10l5.5,20.8h6.5l9.7-23.8L155.5,25.8
		L155.5,25.8L155.5,25.8z"/>
	<path id="path17" class="st8" d="M143.9,25.8H134l-0.1,0.5c7.7,2,12.8,6.7,14.9,12.4l-2.2-10.9C146.3,26.3,145.2,25.9,143.9,25.8
		L143.9,25.8z"/>
</g>
<g>
	<path class="st9" d="M1067,73.7V0.2H931.2v135.9H1067V96.4C1066.7,96.4,1067,73.7,1067,73.7"/>
	<path class="st0" d="M1050.4,66.2h10.3V42.3h-11.2v3.3l-2.1-3.3h-9.7v4.2l-1.8-4.2H1018c-0.6,0-1.2,0.3-1.8,0.3s-0.9,0.3-1.5,0.6
		s-0.9,0.3-1.5,0.6v-1.5H962l-1.5,3.9l-1.5-3.9h-12.1v4.2l-1.8-4.2h-9.7l-4.2,10.3v13.6h7l1.2-3.3h2.4l1.2,3.3h53.3v-3l2.1,3h14.8
		v-1.8c0.3,0.3,0.9,0.3,1.2,0.6c0.3,0.3,0.9,0.3,1.2,0.6c0.6,0.3,1.2,0.3,1.8,0.3h10.9l1.2-3.3h2.4l1.2,3.3h14.8v-3
		C1048,62.8,1050.4,66.2,1050.4,66.2z M1067,96.4V74h-83.2l-2.1,3l-2.1-3h-24.2v23.9h24.2l2.1-3l2.1,3h15.1v-5.1h-0.6
		c2.1,0,3.9-0.3,5.4-0.9v6.4h10.9v-3l2.1,3h45.1C1063.7,97.6,1065.5,97.3,1067,96.4z"/>
	<path class="st9" d="M1061.9,90.7h-8.2V94h7.9c3.3,0,5.4-2.1,5.4-5.1s-1.8-4.5-4.8-4.5h-3.6c-0.9,0-1.5-0.6-1.5-1.5
		s0.6-1.5,1.5-1.5h7l1.5-3.3h-8.2c-3.3,0-5.4,2.1-5.4,4.8c0,3,1.8,4.5,4.8,4.5h3.6c0.9,0,1.5,0.6,1.5,1.5
		C1063.7,90.1,1063.1,90.7,1061.9,90.7z M1047.1,90.7h-8.2V94h7.9c3.3,0,5.4-2.1,5.4-5.1s-1.8-4.5-4.8-4.5h-3.6
		c-0.9,0-1.5-0.6-1.5-1.5s0.6-1.5,1.5-1.5h7l1.5-3.3h-8.2c-3.3,0-5.4,2.1-5.4,4.8c0,3,1.8,4.5,4.8,4.5h3.6c0.9,0,1.5,0.6,1.5,1.5
		C1048.9,90.1,1048,90.7,1047.1,90.7z M1036.5,81v-3.3h-12.7v16h12.7v-3.3h-9.1v-3.3h8.8v-3.3h-8.8v-3h9.1
		C1036.5,80.7,1036.5,81,1036.5,81z M1015.9,81c1.5,0,2.1,0.9,2.1,1.8s-0.6,1.8-2.1,1.8h-4.5v-3.9C1011.4,80.7,1015.9,81,1015.9,81z
		 M1011.4,88h1.8l4.8,5.7h4.5l-5.4-6.1c2.7-0.6,4.2-2.4,4.2-4.8c0-3-2.1-5.1-5.4-5.1h-8.5v16h3.6C1011.1,93.7,1011.4,88,1011.4,88z
		 M1001.7,83.1c0,1.2-0.6,2.1-2.1,2.1h-4.8V81h4.5C1000.8,81,1001.7,81.9,1001.7,83.1z M991.1,77.7v16h3.6v-5.4h4.8
		c3.3,0,5.7-2.1,5.7-5.4c0-3-2.1-5.4-5.4-5.4C999.9,77.4,991.1,77.7,991.1,77.7z M985.6,93.7h4.5l-6.4-8.2l6.4-7.9h-4.5l-3.9,5.1
		l-3.9-5.1h-4.5l6.4,7.9l-6.4,7.9h4.5l3.9-5.1C981.7,88.3,985.6,93.7,985.6,93.7z M972,81v-3.3h-12.7v16H972v-3.3h-9.1v-3.3h8.8
		v-3.3h-8.8v-3h9.1V81z M1045.5,52.6l6.4,9.7h4.5v-16h-3.6v10.6l-0.9-1.5l-5.7-9.1h-4.8v16h3.6v-11
		C1044.9,51.3,1045.5,52.6,1045.5,52.6z M1029.8,52.3l1.2-3.3l1.2,3.3l1.5,3.6h-5.4C1028.3,55.9,1029.8,52.3,1029.8,52.3z
		 M1036.2,62.2h3.9l-7-16h-4.8l-7,16h3.9l1.5-3.3h7.9C1034.7,58.9,1036.2,62.2,1036.2,62.2z M1019.2,62.2l1.5-3.3h-0.9
		c-2.7,0-4.2-1.8-4.2-4.5v-0.3c0-2.7,1.5-4.5,4.2-4.5h3.9v-3.3h-4.2c-4.8,0-7.6,3.3-7.6,7.9v0.3C1012,59.2,1014.7,62.2,1019.2,62.2z
		 M1005.6,62.2h3.6V46.5h-3.6V62.2z M997.7,49.5c1.5,0,2.1,0.9,2.1,1.8c0,0.9-0.6,1.8-2.1,1.8h-4.5v-3.9
		C993.2,49.2,997.7,49.5,997.7,49.5z M993.2,56.5h1.8l4.8,5.7h4.5l-5.4-6.1c2.7-0.6,4.2-2.4,4.2-4.8c0-3-2.1-5.1-5.4-5.1h-8.5v16
		h3.6C992.9,62.2,993.2,56.5,993.2,56.5z M986.5,49.5v-3.3h-12.7v16h12.7v-3.3h-9.1v-3.3h8.8v-3.3h-8.8v-3h9.1V49.5z M959,62.2h3.3
		l4.5-13v13h3.6v-16h-6.1l-3.6,10.9l-3.6-10.9H951v16h3.6v-13C954.8,49.2,959,62.2,959,62.2z M939.3,52.3l1.2-3.3l1.2,3.3l1.5,3.6
		h-5.4C937.8,55.9,939.3,52.3,939.3,52.3z M945.7,62.2h3.9l-7-16h-4.5l-7,16h3.9l1.5-3.3h7.9C944.5,58.9,945.7,62.2,945.7,62.2z"/>
</g>
<path class="st0" d="M1298.6,37.4h17c0,0,16.8-0.3,16.6,14.9c-0.2,11.4-16.3,13.1-16.3,13.1h-17.3L1298.6,37.4L1298.6,37.4
	L1298.6,37.4z M1349.4,92.2c0.5,2.2,2.1,4.7,7.4,4.9c7.1,0.2,11.2-2.5,11.2-2.5v5.3c0,0-7.8,1.9-11.5,1.9c-3.9,0-15.4-0.9-15.4-11.5
	c0-8.7,9.5-11.4,14.9-11.4c9.5,0.3,14.1,3.7,13.9,13.4C1369.9,92.4,1354.2,92.3,1349.4,92.2L1349.4,92.2z M1349.4,88h13
	c0,0,0-4.9-6.3-4.9C1351.4,83.1,1349.8,85.6,1349.4,88z M1390.6,82.7c1.9-2,5-3.7,10.4-3.7c10.5,0,12.2,8.8,12,11.2
	c-0.2,2.4-1,11.4-13.2,11.4c-4.6,0-7.4-1.6-9.2-3.5v2.8h-8.3V70.3h8.3L1390.6,82.7L1390.6,82.7L1390.6,82.7z M1397.7,96.8
	c4.9-0.2,7.1-4.4,7.1-6.4s-1.2-6.3-7.5-6.3c-4.9,0-6.4,3.7-6.8,5.5v2.2C1391,93.6,1392.5,96.8,1397.7,96.8L1397.7,96.8z M1469.5,96
	l0.2,4.8c0,0-3.9,0.8-6.4,0.8s-9.2-1.5-9.2-8v-9.8h-7v-4.4h7v-5.3h8.5v5.3h7v4.4h-7v8.5c0,0,0,4.2,3.4,4.2
	C1469.3,96.5,1469.5,96,1469.5,96L1469.5,96z M1443.7,42h9.8v23.6h8.3V42h10v-4.9h-28.2L1443.7,42L1443.7,42z M1440.3,43.2l1-4.9
	c0,0-4.2-1.9-11.7-1.9c-7.3,0-19,4.1-19,15.1c0,10.9,12.4,14.6,20,14.6s10.2-1.2,10.2-1.2l-0.8-5.4c0,0-3.4,1-9.2,1
	c-5.6-0.2-11.4-4.6-11.4-9.5c0.2-4.4,5.3-9.3,11.9-9.3C1436.4,41.7,1440.3,43.2,1440.3,43.2L1440.3,43.2z M1365.3,37.3
	c0,0,13.9-0.7,13.9,7.5c0,7-8,7.5-8,7.5s2.2,0.3,3.2,1.9c0.8,1.4,6.4,11.5,6.4,11.5h-8.5c0,0-1.4-1.7-2-2.9c-0.5-1.2-2-3.7-2-3.7
	s-1.2-4.2-5.3-4.2c-0.1,0-1.8-0.1-3.1-0.1v11h-8.1V37.3H1365.3L1365.3,37.3z M1360,50h4.4c0,0,6.1-0.3,6.4-4.1
	c0.2-3.6-5.9-4.1-5.9-4.1h-4.9V50L1360,50z M1394.1,54.4h13.6v-5.3h-13.6v-6.4h14.8v-5.4h-23.1v28.3h23.2v-5.1h-14.9V54.4
	L1394.1,54.4L1394.1,54.4z M1427.2,76.1h8.3v-5.8h-8.3V76.1z M1427.2,100.9h8.3V79.3h-8.3V100.9z M1336.6,65.6h8.1V37.3h-8.1V65.6
	L1336.6,65.6z M1298.6,72.7h17c0,0,16.8-0.3,16.6,14.9c-0.2,11.4-16.3,13.1-16.3,13.1h-17.3L1298.6,72.7L1298.6,72.7L1298.6,72.7z
	 M1306.9,95.5h5.4c0,0,11.2-0.7,11.2-9.3s-11.9-9.5-11.9-9.5h-4.8v18.8H1306.9z M1306.9,60.2h5.4c0,0,11.2-0.8,11.2-9.3
	c0-8.8-11.9-9.5-11.9-9.5h-4.8v18.8H1306.9z M1222.4,54.3v56.8c0,0-32.9-5.9-32.9-28.5C1189.5,64.6,1213.9,56.6,1222.4,54.3z
	 M1222.4,53.2c-19.8-1.4-64.6,7.8-64.6,28.1c0,13.2,23.8,32.6,62.4,33.1c1.5,0,45.5-1.7,44.8-48.9c-0.6-39.6-30.2-46.6-39.7-47.8
	v-2.4c37.8,2.4,67.5,25.1,67.5,52.7c0,29.2-33.3,52.9-74.1,52.9c-40.9,0-74-23.8-74-52.9s33.1-52.9,74-52.9c1.3,0,2.5,0,3.7,0.1
	L1222.4,53.2L1222.4,53.2L1222.4,53.2z"/>
</svg>
