<?xml version="1.0" encoding="utf-8"?>
<!-- Generator: Adobe Illustrator 22.0.0, SVG Export Plug-In . SVG Version: 6.00 Build 0)  -->
<svg version="1.1" id="Layer_1" xmlns="http://www.w3.org/2000/svg" xmlns:xlink="http://www.w3.org/1999/xlink" x="0px" y="0px"
	 viewBox="0 0 2631.9 1538.3" style="enable-background:new 0 0 2631.9 1538.3;" xml:space="preserve">
<style type="text/css">
	.st0{fill:#FFFFFF;}
</style>
<g id="Layer_2_1_">
	<path class="st0" d="M2548.4,1085.1l-0.2-0.1c-33-23.1-98.6-46.2-200.5-70.6l-0.3-0.1c-73-16.6-126.2-35.8-158.2-57.1l-0.1-0.1
		c-34.5-22.6-51.2-50.6-51.2-85.5c0-36.1,15-62.8,45.8-81.5l0.2-0.1c26.7-16.6,59.2-25,96.5-25c40.3,0,77.4,10.6,111.6,33.4v0.8
		l43.7,35.7l0.3,0.3l0,0l120,98l4-405l-168,141h-43v-76h-158v-65h-189v-95.9c117.8-27.4,191.1-145.1,163.7-262.9
		c-26-111.7-133.7-184.4-247-166.8l-498,77.1l0,0l-5.6,0.9v0.1c-119,21.7-197.9,135.7-176.2,254.7
		c21.3,116.7,131.6,195.3,248.8,177.2c2.6-0.4,5.2-0.9,7.7-1.3l48.6-7.5v24.5h-118v50l-254.8-90.9l-53.1,148.9l206.7,73H1297v0.2
		h-186.5l0.5,43.8h21c51,0,88.1,24.3,109.1,50.3c22.2,27.5,33.4,80.4,33.4,157.3v313.4c0,70.2-24.2,122.6-74.1,160.1
		c-35.1,26.5-71.4,40-107.9,40c-67.2,0-113.6-17.8-138-53c-21.3-30.5-32-84-32-159.1V809.5c0-18.1,1.5-26.7,2.5-30.3
		c0,0,0-26.1,143-26.1h18l-0.5-43.9h-506l0.5,43.9h21c127,0,127,25,127,25s-0.2,0.1,0.6,0.5c0.8,4,1.9,12.8,1.9,30.9v477.1
		c0,81.5,37.4,146,111.1,191.8c4.8,2.9,9.6,5.8,14.5,8.5c-98.9-17-113.8-58.5-113.8-58.5L479.1,711.3h-55.8L215,1289.5
		c-31.9,87.8-51.3,123.8-62,138.5c-23.3,31.9-78.1,66.2-132,66.2H0v44l372,0.1v-44.1h-22c-123,0-110.3-73.8-110.3-73.8
		c0-16.6,4.4-37.1,13.1-60.9l32.1-91.2h201.7l70.9,195.3c0,0,31.5,35.6-159.5,30.6l1,44.1l669-0.1l0,0c4,0.1,7.9,0.1,11.9,0.1
		c52.3,0,102.9-16.7,150.5-49.6c69.1-48.2,104.1-120.2,104.1-213.9V914.2c0-65.5,10.1-96,18.6-110.1c11.3-18.9,33.8-36.8,64.6-45.5
		c39.5-4.5,42.3,64.6,42.3,64.6v45l-1,567.7c0,0,3,58.3-145,58.3h-22l-1,44h550v-44h-24c0,0-165,0-166-58.2s1-304.7,1-304.7
		c58.1,0.4,115.8,2.8,132.8,15.8l0.2,0.2c21,15.6,46,60.4,46,185v22h58V836.2h-56.2l-1.7,20.1c-11.2,129.5-36.8,175.6-56.4,191.6
		c-15.9,12.9-78.9,14.9-122.7,15.3V809.6c0-17.9,1.4-27,2.4-31.2l0.6-0.2c19.5-5.7,40.8-10.2,59.8-11.7c20.6-1.6,56.9-2.3,107.8-2.3
		h10.2c69.7-0.2,124.7-0.3,158,59.7c28.3,51.1,28.3,65.4,28.3,125.8v0.6h0.9c0,0.1,0,0.2,0,0.3c0,74.8,27.2,132.8,80.8,172.5
		l0.2,0.2c35.3,25.4,94.6,49.1,181.6,72.4c81.1,21.8,138.3,42.6,169.8,61.8c42.1,25.9,62.6,59.9,62.6,104
		c0,35.7-14.9,64.8-45.6,88.9c-27.5,21.5-56.8,31.9-89.6,31.9c-74.1,0-130.9-20.3-168.8-60.4c-19.9-21-37.5-48-52.4-80.3l-0.1-0.1
		c-2-4.2-4.1-8.5-6.2-13c-18.1-38.2-40.7-85.7-53.8-144.1l-1.3-5.9H2055l-0.1,348.4l114.9-58.9c25.5,26.8,38.8,32,71.4,45.1
		c39.7,15.9,85,24,134.8,24c66.6,0,124.2-20,171.3-59.5c56.1-46.7,84.6-113.1,84.6-197.5C2631.9,1190.3,2603.8,1124.7,2548.4,1085.1
		z M143,1494.2c18.8-11.2,34.3-24.9,45.6-40.4c2.8-3.9,5.8-8.4,8.8-13.4c4.3,25.9,16.8,42.8,30.1,53.8L143,1494.2z M306.7,1210.3
		l79-218.1l79,218.1H306.7z M595.6,1494.3c5-7.2,7.7-15.8,7.6-24.6v-2.2l-3.1-15.8l-82.6-227.4h-0.9L400.6,904.2l50.8-140.9
		l249.8,680.4c10.9,39.5,64.9,50.5,64.9,50.5L595.6,1494.3z M864.9,1441.1c-60.8-37.7-90.3-88.2-90.3-154.4V809.6
		c0-34.2-3.6-46-7.1-53.1c-0.5-1.1-1.2-2.2-1.8-3.2h123.1c-0.6,0.9-1.1,1.8-1.6,2.7c-5.9,10.9-8.6,27.5-8.6,53.5v452.7
		c0,85.4,13.1,145.7,39.9,184.2c8,11.6,17.7,21.9,28.7,30.7C916.9,1468.4,889.5,1456.4,864.9,1441.1L864.9,1441.1z M1802.5,1082
		c17.2-14.1,31.2-35.7,42.5-65.8v137.4c-9.1-17.8-20.3-31.7-33.6-41.6c-9.3-7.1-21.5-12.2-37.4-15.9
		C1785.8,1092.6,1795.2,1088,1802.5,1082L1802.5,1082z M2099,1438.2l-0.1-119.9c0,0,24.1,53.9,56.1,96.9L2099,1438.2z M2517.1,619.1
		l-2.2,226.3l-80.2-65.5l-0.7-27.7v-63.3L2517.1,619.1z M2392,711.2v21.6c-13.9-5.7-28.3-10.1-43-13.3v-8.3H2392z M2307,635.2v77.9
		c-13.9-1.3-28.6-2-43.9-2l-72.1-0.2v-75.7H2307z M2126.8,192c14.9,96.3-51.3,186.7-147.6,201.6l-1,0.1v-0.1l-6,0.9
		c-93.6,10.7-180.1-54.6-194.6-148.5c-14.9-96.3,51.3-186.7,147.6-201.6S2111.9,95.8,2126.8,192L2126.8,192z M1775.5,89.7
		c-71.4,97.6-50.2,234.6,47.4,306.1c8.9,6.5,18.4,12.4,28.2,17.6l-241.7,37.4c7.8-7.9,15-16.3,21.6-25.3
		c71.4-97.6,50.2-234.6-47.4-306.1c-9-6.6-18.5-12.5-28.4-17.7l242.1-37.5C1789.4,72.1,1782.1,80.7,1775.5,89.7L1775.5,89.7z
		 M1279.6,323.1c-14.9-96.3,51.3-186.7,147.6-201.6s186.7,51.3,201.6,147.6c14.5,93.9-48.1,182.3-140.6,200.4l-13.6,2.1l0,0
		C1380.9,482.5,1294.2,417.2,1279.6,323.1L1279.6,323.1z M1586,497.2l374-57.9v88.9h-374V497.2z M1171.8,610.8l24.9-69.7L1670.2,710
		l-223.3-0.4L1171.8,610.8z M1315.3,781.5c-6.5,10.8-11.7,23.9-15.6,39.6c-6.4-17.9-14.6-32.9-24.4-45.1
		c-6.9-8.5-14.7-16.1-23.5-22.6h73.6c4.2,0.2,8.6,0.5,13,0.9C1329.3,762,1321.5,771.2,1315.3,781.5L1315.3,781.5z M1463,1494.2
		c40,0,40-58.3,40-58.3l1-626.4c0-35-3.5-46.7-7.4-53.7c-0.4-0.8-0.8-1.5-1.3-2.2l121.6,0.3c-6.3,11.3-8.9,28.5-8.9,55.8l-1,626.3
		c0,35.3,1,58.2,43,58.2H1463z M1795.9,710.2l-327.9-117v-23h681v140.7L1795.9,710.2z M2029.2,802.6c-10.9-19.6-24.2-35.5-40-47.9
		l133.7,0.3c-10.9,7.7-21.1,16.3-30.7,25.6c-17.9,17-33,36.7-44.9,58.3C2041.9,826.5,2035.9,814.3,2029.2,802.6L2029.2,802.6z
		 M2551.7,1409c4.9-15.4,7.3-31.4,7.2-47.5c0-59.8-28.1-107.4-83.7-141.5c-35.7-21.7-95-43.6-181.3-66.8
		c-80.4-21.6-136.6-43.7-167.1-65.6c-42.3-31.3-62.9-76.2-62.9-137c0-41,10.7-76.6,32.6-107.9c-1.8,9.6-2.6,19.3-2.6,29
		c0,50.2,23.9,91.3,71,122.2c36.9,24.5,93.4,45.2,172.6,63.3c118.2,28.4,166.1,50.4,185.4,63.8c43.8,31.3,65,83.4,65,159.2
		C2587.9,1332.3,2576,1374.8,2551.7,1409L2551.7,1409z"/>
</g>
</svg>
