<?xml version="1.0" standalone="no"?>
<!DOCTYPE svg PUBLIC "-//W3C//DTD SVG 20010904//EN"
 "http://www.w3.org/TR/2001/REC-SVG-20010904/DTD/svg10.dtd">
<svg version="1.0" xmlns="http://www.w3.org/2000/svg"
 width="1024.000000pt" height="1024.000000pt" viewBox="0 0 1024.000000 1024.000000"
 preserveAspectRatio="xMidYMid meet">
<metadata>
Created by potrace 1.11, written by Peter Selinger 2001-2013
</metadata>
<g transform="translate(0.000000,1024.000000) scale(0.100000,-0.100000)"
fill="#000000" stroke="none">
<path d="M5738 8275 c-2 -2 -22 -6 -45 -9 -24 -3 -62 -9 -85 -13 -24 -3 -53
-6 -65 -7 -13 0 -23 -2 -23 -5 0 -4 -19 -7 -43 -9 -39 -2 -82 -9 -82 -12 0 -1
-13 -3 -30 -5 -16 -2 -46 -6 -65 -10 -19 -4 -51 -9 -70 -10 -19 -2 -35 -4 -35
-5 0 -1 -9 -3 -20 -4 -11 -2 -45 -7 -75 -11 -30 -4 -64 -9 -75 -11 -11 -1 -20
-3 -20 -4 0 -1 -29 -5 -100 -14 -22 -2 -40 -5 -40 -6 0 -2 -32 -8 -65 -12 -14
-2 -31 -7 -37 -11 -8 -5 -13 -3 -13 3 0 6 -4 8 -10 5 -13 -8 -57 -16 -165 -31
-11 -1 -20 -3 -20 -4 0 -1 -13 -3 -30 -4 -16 -2 -50 -7 -75 -11 -25 -4 -56 -9
-70 -10 -14 -2 -25 -4 -25 -5 0 -3 -69 -12 -102 -13 -18 -1 -33 -4 -33 -7 0
-3 -10 -6 -22 -6 -13 -1 -57 -6 -98 -13 -41 -7 -88 -14 -105 -16 -16 -1 -30
-4 -30 -5 0 -2 -24 -7 -80 -14 -27 -3 -66 -9 -85 -12 -19 -3 -48 -7 -65 -9
-16 -2 -30 -4 -30 -5 0 -1 -16 -3 -35 -5 -19 -2 -35 -4 -35 -5 0 -3 -41 -10
-82 -12 -24 -2 -43 -6 -43 -9 0 -3 -16 -5 -36 -4 -19 0 -37 -2 -39 -6 -3 -3
-17 -6 -32 -7 -15 -1 -39 -4 -53 -7 -27 -5 -101 -16 -140 -20 -14 -2 -25 -4
-25 -5 0 -1 -20 -4 -44 -6 -25 -3 -54 -10 -64 -16 -14 -7 -22 -7 -27 2 -5 9
-9 9 -14 1 -4 -6 -11 -9 -16 -6 -5 3 -11 1 -15 -4 -3 -6 -13 -7 -22 -4 -11 5
-14 3 -8 -6 6 -10 3 -11 -12 -2 -11 6 -23 8 -26 5 -3 -4 -21 -8 -39 -10 -41
-5 -91 -12 -98 -14 -3 -1 -15 -1 -27 0 -13 1 -23 -3 -23 -7 0 -5 -13 -8 -30
-7 -16 1 -30 -1 -30 -4 0 -4 -17 -8 -38 -8 -34 -1 -107 -11 -107 -14 0 -1 -18
-4 -40 -6 -61 -7 -90 -12 -90 -14 0 -1 -13 -4 -30 -5 -16 -2 -43 -5 -60 -9
-16 -3 -47 -8 -69 -11 -54 -9 -75 -13 -96 -20 -10 -3 -28 -8 -40 -10 -11 -2
-34 -11 -51 -19 -16 -8 -27 -11 -24 -6 5 9 -17 1 -105 -37 -66 -28 -195 -96
-219 -114 -13 -11 -29 -19 -37 -19 -7 0 -14 -3 -16 -7 -1 -5 -27 -26 -55 -48
-29 -21 -53 -43 -53 -47 0 -4 -4 -7 -8 -5 -5 1 -24 -15 -44 -35 -19 -21 -38
-35 -42 -31 -3 3 -6 1 -6 -5 0 -7 -17 -29 -37 -51 -51 -51 -93 -101 -86 -101
4 0 -4 -8 -15 -19 -12 -10 -22 -21 -22 -25 0 -3 -16 -28 -36 -56 -20 -27 -32
-50 -27 -50 4 0 1 -5 -8 -10 -9 -5 -20 -22 -24 -37 -3 -15 -10 -30 -14 -33 -8
-5 -71 -143 -71 -154 0 -4 -7 -23 -16 -44 -9 -20 -18 -44 -19 -52 -1 -8 -6
-28 -9 -45 -4 -16 -8 -36 -8 -42 -1 -7 -4 -13 -7 -13 -6 0 -12 -43 -15 -97 0
-13 -3 -23 -6 -23 -8 0 -10 -34 -10 -205 0 -156 2 -193 11 -210 3 -5 5 -17 4
-25 0 -8 4 -18 10 -22 6 -5 5 -8 -3 -8 -9 0 -10 -5 -3 -17 8 -16 22 -80 24
-110 0 -7 4 -13 9 -13 4 0 8 -11 8 -25 0 -14 5 -25 11 -25 5 0 8 -4 5 -9 -4
-5 3 -31 15 -58 11 -26 21 -56 22 -65 1 -10 4 -18 7 -18 3 0 15 -19 25 -42 10
-24 29 -60 42 -80 13 -21 20 -38 16 -38 -5 0 -3 -4 3 -8 6 -4 25 -29 44 -57
85 -127 232 -281 338 -354 34 -24 62 -48 62 -54 0 -6 3 -8 6 -4 3 3 29 -9 57
-27 29 -18 75 -43 102 -56 28 -13 52 -26 55 -29 3 -3 10 -7 15 -8 6 -2 62 -21
125 -42 63 -22 129 -43 145 -46 38 -7 93 -16 125 -20 14 -2 25 -4 25 -5 0 -7
322 -6 336 1 8 4 21 4 29 -1 8 -5 19 -5 25 0 10 8 50 16 129 26 22 3 48 10 58
15 12 7 18 6 18 -1 0 -6 5 -8 10 -5 14 8 57 16 98 18 17 0 32 4 32 8 0 8 39 3
48 -6 8 -8 8 -59 -1 -77 -5 -11 -4 -18 3 -18 7 0 8 -6 1 -17 -5 -10 -11 -22
-13 -28 -1 -5 -15 -9 -30 -9 -16 1 -28 -2 -28 -8 0 -5 -5 -6 -11 -2 -16 10
-189 11 -189 1 0 -4 -5 -5 -11 -1 -16 10 -189 11 -189 1 0 -4 -5 -5 -12 -1
-18 11 -68 13 -68 2 0 -5 -5 -6 -12 -2 -19 12 -62 11 -70 0 -5 -7 -8 -7 -8 -1
0 8 -124 12 -160 6 -8 -2 -6 -51 3 -51 4 0 4 -8 -1 -17 -5 -10 -6 -27 -2 -38
4 -11 4 -27 -1 -36 -4 -8 -4 -21 1 -29 4 -7 5 -23 0 -35 -5 -12 -5 -28 0 -35
5 -7 4 -24 -1 -37 -5 -14 -5 -23 1 -23 5 0 7 -6 4 -14 -5 -13 -54 -18 -54 -6
0 3 -21 12 -47 19 -27 8 -54 18 -60 24 -7 5 -13 6 -13 2 0 -4 -6 -3 -12 2 -14
11 -68 27 -81 25 -4 -1 -7 3 -7 8 0 6 -11 10 -24 10 -14 0 -28 5 -31 10 -4 6
-11 8 -16 5 -5 -4 -9 -1 -9 5 0 7 -7 10 -15 7 -8 -4 -16 -3 -19 1 -3 5 -28 14
-55 22 -28 7 -51 18 -51 22 0 5 -3 7 -7 5 -5 -3 -19 0 -33 6 -14 5 -29 11 -35
12 -5 2 -17 4 -25 6 -8 2 -18 7 -21 12 -3 4 -14 9 -25 11 -10 2 -39 12 -64 21
-25 9 -49 17 -55 19 -5 2 -17 6 -25 9 -8 3 -55 20 -105 37 -49 17 -103 37
-120 43 -16 7 -33 11 -37 9 -5 -1 -8 3 -8 10 0 6 -3 9 -6 5 -6 -6 -93 24 -128
44 -14 8 -16 8 -11 -2 5 -7 -3 -6 -21 4 -45 24 -111 47 -118 40 -3 -4 -6 -1
-6 5 0 7 -8 12 -18 12 -10 0 -22 3 -26 7 -3 4 -13 8 -21 9 -8 1 -47 15 -87 30
-40 15 -78 27 -85 27 -7 0 -13 4 -13 9 0 5 -6 8 -12 7 -7 -1 -22 1 -33 6 -71
28 -88 35 -90 35 -3 0 -24 -51 -30 -72 -1 -5 -4 -10 -5 -13 -1 -3 -3 -8 -5
-12 -1 -5 -4 -15 -8 -23 -3 -8 -13 -37 -22 -65 -10 -27 -21 -59 -25 -70 -12
-29 -23 -59 -25 -67 -2 -5 -3 -9 -5 -10 -1 -2 -3 -10 -5 -18 -5 -21 -54 -161
-65 -185 -8 -18 -23 -62 -25 -75 0 -3 -6 -15 -13 -27 -7 -13 -10 -23 -6 -23 3
0 -1 -12 -11 -26 -9 -14 -14 -28 -11 -31 3 -4 2 -11 -3 -17 -7 -9 -30 -69 -36
-96 -1 -3 -7 -18 -14 -35 -7 -16 -14 -37 -16 -46 -2 -8 -10 -33 -19 -54 -19
-45 -18 -46 59 -70 28 -9 59 -20 70 -25 23 -10 163 -59 185 -65 8 -2 16 -4 18
-5 1 -2 5 -3 10 -5 4 -1 14 -4 22 -8 64 -24 157 -57 162 -57 4 0 19 -5 35 -12
15 -6 33 -12 38 -13 6 -2 17 -4 25 -6 8 -2 17 -7 20 -11 3 -4 15 -9 25 -11 11
-2 27 -7 35 -10 28 -10 185 -65 230 -80 25 -8 63 -22 85 -30 22 -8 49 -18 60
-23 11 -4 28 -9 38 -11 10 -1 31 -10 46 -18 16 -8 31 -11 35 -8 3 4 6 1 6 -5
0 -6 8 -11 18 -11 22 1 145 -43 153 -54 3 -5 9 -8 13 -7 6 2 41 -10 91 -30 11
-5 43 -16 70 -26 28 -10 52 -20 55 -23 3 -4 14 -8 25 -9 11 -2 34 -10 50 -17
17 -7 57 -23 90 -35 33 -12 68 -26 77 -31 10 -5 25 -9 33 -9 8 0 15 -5 15 -11
0 -5 4 -8 8 -5 4 2 21 -2 37 -9 37 -17 245 -96 262 -99 7 -1 15 -5 19 -9 4 -3
15 -2 25 4 11 5 19 6 19 1 0 -9 51 -7 77 2 6 3 14 2 18 -2 10 -10 65 -9 65 1
0 6 5 6 13 0 6 -5 129 -9 272 -8 162 0 263 -4 267 -10 5 -7 8 -7 8 0 0 6 28 9
67 8 38 -1 218 -4 400 -5 183 -2 333 -7 333 -11 0 -5 5 -5 12 -1 19 12 187 11
192 -1 3 -5 5 -4 5 2 1 9 8 10 24 4 13 -5 30 -5 37 -1 9 5 20 4 27 -2 7 -6 13
-6 13 -1 0 5 21 7 50 3 28 -4 50 -2 50 2 0 5 5 6 12 2 6 -4 177 -9 380 -10
202 -1 372 -5 378 -9 5 -3 10 0 10 7 0 9 3 9 10 -2 7 -11 10 -11 10 -2 0 7 5
10 10 7 6 -4 137 -7 293 -8 155 -2 287 -6 294 -10 6 -4 14 -3 17 2 6 9 50 6
68 -5 4 -3 8 -1 8 3 0 5 11 9 25 9 14 0 25 -5 25 -10 0 -6 4 -5 9 3 6 10 13
10 28 2 11 -5 23 -8 26 -5 10 10 57 11 57 1 0 -5 5 -5 13 2 8 6 17 8 20 4 11
-10 57 -10 57 0 0 5 6 4 14 -2 8 -7 17 -8 19 -4 4 7 62 9 62 3 0 -1 10 -3 23
-4 12 -2 22 1 22 6 0 5 6 6 13 1 17 -11 29 -11 50 -1 9 5 17 5 17 1 0 -4 127
-9 283 -10 762 -5 1094 -10 1104 -16 6 -4 13 -1 16 5 3 10 7 10 19 1 8 -7 18
-9 22 -5 11 11 50 9 58 -3 5 -7 8 -7 8 1 0 7 17 8 50 4 28 -4 50 -3 50 2 0 5
9 4 19 -2 14 -7 22 -7 26 0 4 6 10 8 14 6 4 -3 54 -8 112 -12 106 -6 144 -10
144 -13 0 -1 11 -4 25 -6 54 -8 79 -14 125 -30 11 -4 27 -9 35 -11 37 -7 54
-13 145 -54 33 -14 64 -27 69 -27 5 -1 12 -5 15 -10 6 -8 37 -27 82 -50 14 -7
37 -23 51 -36 13 -12 42 -35 64 -51 21 -17 49 -40 61 -53 12 -13 24 -23 27
-23 5 0 32 -20 60 -45 6 -6 47 -39 91 -75 44 -35 87 -72 96 -82 9 -10 20 -18
25 -18 5 0 27 -17 49 -38 23 -20 56 -49 75 -63 19 -15 45 -35 56 -45 12 -11
36 -30 54 -44 18 -14 41 -32 50 -40 10 -8 37 -31 61 -50 81 -67 114 -95 121
-105 4 -5 8 -7 8 -2 0 7 42 -28 92 -76 10 -9 21 -17 24 -17 4 0 19 -13 35 -29
15 -16 30 -27 33 -23 3 3 6 -1 6 -8 0 -7 3 -10 7 -6 4 4 8 120 9 259 7 800 10
925 18 919 5 -3 5 1 0 9 -12 20 -12 99 0 99 7 0 8 3 1 8 -5 4 -10 16 -10 27 0
11 5 23 10 27 7 5 7 8 0 8 -6 0 -10 20 -10 45 0 25 4 45 9 45 5 0 3 6 -3 14
-7 8 -8 17 -3 20 9 5 8 59 -2 75 -4 5 -2 13 4 16 8 5 7 11 -1 21 -6 8 -8 14
-3 14 5 0 9 18 9 40 0 22 -4 40 -9 40 -5 0 -4 6 2 13 12 14 11 35 -1 55 -5 7
-3 12 3 12 8 0 8 6 0 20 -6 11 -7 20 -3 20 4 0 9 209 10 465 l2 466 -37 -30
c-20 -16 -54 -45 -75 -63 -20 -18 -51 -44 -68 -58 -17 -14 -39 -32 -49 -40
-10 -8 -39 -33 -66 -55 -26 -22 -55 -48 -63 -57 -9 -10 -19 -18 -22 -18 -7 0
-61 -45 -111 -92 -15 -15 -28 -25 -28 -23 0 6 -44 -30 -83 -68 -16 -15 -45
-40 -65 -55 -20 -15 -44 -34 -52 -42 -24 -22 -68 -59 -130 -109 -30 -25 -63
-54 -72 -65 -10 -12 -18 -17 -18 -13 0 4 -17 -9 -38 -30 -21 -21 -42 -39 -45
-41 -7 -2 -44 -32 -85 -69 -14 -13 -34 -23 -46 -24 -12 0 -77 -1 -145 -2 -115
-2 -124 -1 -131 18 -4 11 -4 27 0 34 4 8 4 25 -1 38 -4 12 -5 24 -1 27 4 2 5
47 2 100 -3 53 -1 96 3 96 4 0 3 9 -3 19 -6 12 -6 22 -1 26 6 3 6 17 1 34 -4
15 -4 34 0 42 5 7 6 18 2 23 -3 6 -5 24 -4 40 2 25 0 27 -13 16 -8 -7 -15 -8
-15 -3 0 5 -7 10 -15 10 -8 0 -15 -5 -15 -11 0 -7 -3 -8 -8 -1 -9 13 -102 14
-102 0 0 -6 -3 -7 -8 0 -10 14 -65 14 -74 1 -5 -7 -8 -7 -8 -1 0 14 -70 14
-70 1 0 -7 -3 -8 -8 -1 -10 14 -65 14 -74 1 -6 -8 -11 -7 -17 2 -11 17 -21 17
-32 0 -5 -7 -9 -8 -9 -3 0 6 -30 10 -70 10 -38 0 -70 -4 -70 -8 0 -4 -8 -3
-18 2 -13 7 -23 6 -30 -1 -8 -8 -12 -8 -12 -2 0 6 -7 11 -15 11 -8 0 -15 -5
-15 -11 0 -7 -3 -8 -8 -1 -9 13 -102 14 -102 0 0 -6 -3 -7 -8 0 -10 14 -65 14
-74 1 -6 -8 -11 -7 -17 2 -4 8 -12 14 -16 14 -4 0 -12 -6 -16 -14 -5 -7 -9 -8
-9 -2 0 6 -19 9 -47 8 -84 -4 -78 -20 -76 218 1 213 -3 242 -33 217 -7 -6 -14
-6 -17 -2 -6 9 -170 9 -185 -1 -6 -3 -13 -3 -16 2 -6 10 -87 9 -103 -1 -7 -4
-14 -4 -17 1 -4 7 -73 8 -101 2 -5 -1 -12 -1 -15 0 -14 6 -88 5 -84 -1 2 -4
-9 -4 -26 1 -18 5 -32 5 -36 -1 -3 -5 -11 -6 -17 -2 -18 11 -87 11 -80 -1 4
-5 1 -6 -6 -1 -16 10 -201 12 -195 3 3 -5 -5 -4 -18 0 -27 9 -70 8 -86 -2 -6
-3 -13 -3 -16 2 -6 10 -87 9 -103 -1 -7 -4 -14 -4 -16 0 -3 5 -29 8 -59 7
l-53 -1 1 317 c0 174 4 321 8 328 4 7 11 10 16 7 5 -3 12 0 15 6 4 5 13 8 21
5 8 -3 14 -1 14 5 0 6 4 8 8 5 5 -3 20 1 33 8 14 7 33 12 42 10 9 -1 17 2 17
7 0 5 3 8 8 7 12 -2 211 88 222 101 3 3 19 13 35 21 42 21 175 121 175 131 0
5 5 9 11 9 15 0 193 182 216 220 9 17 21 30 25 30 4 0 8 4 8 9 0 5 18 35 39
68 46 68 121 211 121 230 0 7 4 13 8 13 4 0 8 8 9 18 1 9 7 31 14 47 12 30 15
41 23 73 3 9 5 17 6 17 1 0 3 11 6 25 2 14 7 32 11 40 4 8 8 26 9 40 4 35 8
53 17 68 5 7 3 12 -4 12 -8 0 -8 4 -2 13 5 6 9 27 8 45 0 17 2 32 5 32 11 0 0
291 -14 360 -3 14 -7 39 -10 57 -6 41 -24 106 -43 163 -8 25 -16 50 -17 55 -1
6 -10 25 -19 43 -10 17 -15 32 -12 32 4 0 -52 112 -73 144 -4 6 -7 13 -7 16
-1 12 -70 110 -78 110 -4 0 -6 4 -2 9 3 5 -4 16 -15 24 -11 7 -18 16 -15 19 3
2 -31 42 -75 89 -44 46 -80 87 -80 91 0 5 -5 8 -11 8 -6 0 -23 12 -39 28 -15
15 -38 34 -50 42 -19 13 -43 31 -75 58 -5 4 -24 14 -42 22 -17 8 -30 17 -28
20 4 7 -196 106 -207 102 -5 -1 -8 2 -8 8 0 6 -3 9 -7 9 -18 -3 -73 14 -73 23
0 5 -4 6 -10 3 -5 -3 -10 -2 -10 2 0 5 -14 10 -32 11 -17 2 -36 7 -42 11 -6 5
-14 10 -19 10 -4 0 -31 4 -60 8 -28 4 -55 6 -59 5 -5 -1 -8 2 -8 7 0 5 -10 9
-22 10 -85 3 -368 8 -370 6z m248 -287 c5 -3 19 -4 32 -3 12 1 22 -3 22 -8 0
-5 6 -4 14 2 10 9 16 9 21 1 4 -6 14 -10 23 -9 10 1 20 0 25 -1 9 -3 16 -5 57
-14 19 -4 46 -11 60 -16 41 -13 55 -17 60 -17 3 0 16 -6 30 -13 14 -8 27 -15
30 -16 3 -1 15 -5 28 -9 12 -4 22 -12 22 -17 0 -6 7 -8 15 -4 8 3 15 1 15 -4
0 -6 5 -10 11 -10 6 0 30 -13 54 -30 24 -16 46 -30 49 -30 3 0 17 -9 30 -21
13 -12 28 -22 32 -23 5 0 23 -14 40 -31 17 -16 44 -42 60 -56 61 -54 184 -207
184 -228 0 -6 5 -11 11 -11 5 0 8 -4 4 -9 -3 -6 0 -13 7 -18 7 -4 24 -33 38
-63 14 -30 29 -58 33 -61 5 -3 8 -8 7 -10 -5 -9 24 -89 31 -89 5 0 6 -7 3 -15
-4 -8 -1 -22 6 -30 6 -8 9 -19 6 -24 -4 -5 -2 -12 4 -16 6 -3 8 -17 6 -30 -3
-13 0 -25 5 -27 5 -2 10 -24 11 -50 2 -27 6 -48 9 -48 6 0 2 -269 -5 -310 -2
-14 -5 -25 -6 -25 -2 0 -9 -34 -14 -65 -2 -14 -5 -27 -6 -30 -1 -3 -3 -9 -4
-15 -1 -5 -5 -17 -8 -25 -3 -8 -16 -44 -28 -79 -27 -77 -95 -211 -116 -228 -9
-6 -15 -15 -14 -20 0 -4 -10 -22 -24 -40 -15 -18 -26 -34 -26 -36 0 -15 -147
-158 -214 -209 -67 -50 -177 -120 -196 -124 -25 -5 -70 -28 -70 -35 0 -5 -3
-8 -7 -7 -13 2 -103 -26 -103 -32 0 -4 -10 -6 -22 -5 -13 1 -35 -4 -50 -11
-33 -17 -41 -18 -33 -1 4 6 1 5 -7 -3 -8 -9 -30 -15 -55 -15 -24 0 -43 -2 -43
-5 0 -3 -15 -5 -32 -5 -18 1 -40 -1 -48 -5 -8 -4 -24 -4 -35 0 -11 4 -26 3
-32 -2 -9 -7 -13 -7 -13 0 0 12 -33 10 -42 -3 -5 -7 -8 -7 -8 0 0 6 -17 11
-38 12 -51 3 -98 10 -157 23 -27 7 -57 13 -65 15 -8 2 -31 10 -51 19 -20 8
-39 12 -43 9 -3 -4 -6 -1 -6 5 0 7 -7 12 -15 12 -19 0 -179 79 -183 91 -2 5
-9 9 -16 9 -7 0 -21 9 -31 20 -10 11 -24 20 -32 20 -7 0 -13 5 -13 10 0 6 -7
10 -16 10 -8 0 -12 5 -9 10 3 6 0 10 -7 10 -7 0 -55 43 -106 95 -51 52 -90 95
-87 95 3 0 -5 12 -19 27 -14 14 -33 41 -43 60 -9 18 -21 33 -26 33 -4 0 -6 4
-2 10 3 5 -3 18 -13 28 -10 10 -16 24 -14 32 3 7 0 10 -7 6 -6 -4 -11 -1 -11
9 0 8 -4 23 -9 33 -30 57 -66 160 -75 217 -2 11 -5 21 -6 23 -1 1 -4 11 -5 22
-1 11 -4 21 -5 23 -13 13 -18 312 -7 382 5 28 9 60 10 73 1 12 4 22 9 22 4 0
5 7 2 15 -4 8 -2 15 2 15 5 0 10 15 11 32 2 18 7 34 12 36 6 2 8 9 5 17 -3 7
-1 16 5 20 6 3 11 17 11 30 0 13 5 25 10 27 6 2 12 13 13 26 0 12 5 22 9 22 4
0 8 7 8 15 0 8 5 15 12 15 6 0 9 3 5 6 -5 5 58 123 73 134 3 3 20 25 37 50 40
57 138 160 153 160 6 0 8 5 5 10 -3 6 -2 10 2 10 5 0 26 16 48 35 22 19 46 35
53 35 6 0 12 4 12 9 0 5 16 16 35 25 19 9 35 21 35 27 0 6 4 8 9 4 5 -3 16 2
24 10 9 8 21 15 27 15 7 0 25 9 41 21 16 11 29 18 29 14 0 -3 13 1 30 10 16 8
33 16 37 16 5 1 19 6 33 11 14 5 36 12 50 15 13 2 29 8 36 14 6 5 13 6 16 4 3
-3 26 -1 51 5 26 5 77 13 114 16 37 3 69 7 70 8 4 3 132 -2 139 -6z m-1193
-191 c-21 -23 -45 -47 -53 -54 -8 -7 -12 -13 -8 -13 4 0 -3 -11 -15 -24 -36
-39 -57 -69 -57 -85 0 -8 -3 -11 -6 -8 -7 6 -49 -61 -61 -95 -3 -10 -9 -18
-13 -18 -4 0 -11 -10 -15 -22 -4 -13 -9 -25 -10 -28 -1 -3 -6 -15 -10 -27 -4
-13 -11 -23 -14 -23 -4 0 -8 -6 -8 -12 0 -7 -11 -35 -23 -63 -13 -27 -24 -63
-26 -79 -3 -17 -8 -32 -13 -35 -4 -4 -8 -13 -9 -21 -1 -18 -10 -62 -22 -110
-13 -49 -23 -151 -24 -245 -1 -44 -5 -83 -11 -87 -6 -5 -6 -8 1 -8 6 0 10 -17
10 -40 -1 -22 1 -40 4 -40 3 0 5 -15 5 -32 -1 -18 2 -49 6 -68 4 -19 11 -48
14 -65 13 -64 16 -75 25 -101 6 -14 8 -30 4 -35 -3 -5 0 -9 7 -9 7 0 10 -3 6
-6 -3 -4 0 -19 9 -35 8 -16 12 -29 9 -29 -3 0 2 -11 11 -25 9 -14 13 -25 10
-25 -4 0 0 -10 9 -23 8 -13 12 -27 8 -30 -3 -4 -1 -7 5 -7 7 0 12 -9 12 -19 0
-11 3 -21 8 -23 4 -1 20 -28 36 -58 33 -61 66 -111 81 -122 6 -4 6 -8 2 -8 -5
0 -2 -6 5 -14 26 -28 86 -101 89 -110 2 -5 33 -37 69 -70 36 -34 67 -64 70
-67 3 -4 46 -36 95 -73 50 -36 95 -69 100 -74 6 -4 27 -16 48 -25 42 -20 48
-33 15 -33 -13 -1 -41 -4 -63 -8 -22 -4 -56 -9 -75 -12 -19 -3 -44 -7 -55 -9
-11 -2 -40 -6 -65 -9 -25 -3 -56 -8 -70 -11 -14 -3 -45 -8 -70 -11 -25 -3 -56
-8 -70 -10 -32 -7 -88 -15 -117 -17 -13 0 -23 -3 -23 -6 0 -4 -10 -7 -22 -7
-34 -2 -113 -12 -113 -14 0 -1 -19 -4 -90 -14 -22 -2 -57 -8 -79 -11 -21 -4
-50 -8 -65 -10 -14 -2 -26 -4 -26 -5 0 -2 -10 -3 -100 -14 -22 -2 -40 -5 -40
-7 0 -2 -10 -3 -71 -12 -17 -2 -36 -7 -43 -11 -6 -4 -11 -2 -11 5 0 8 -4 8
-12 2 -13 -10 -20 -12 -78 -15 -16 -1 -30 -4 -30 -7 0 -3 -10 -7 -22 -7 -29
-2 -101 -11 -153 -19 l-40 -7 30 30 c17 16 35 36 40 44 8 13 70 92 104 134 6
7 7 15 4 18 -4 3 -1 6 6 6 7 0 19 16 27 35 8 19 19 35 24 35 6 0 10 8 10 19 0
10 7 24 15 31 8 7 15 16 15 21 0 5 13 36 29 69 16 33 28 60 25 60 -2 0 6 21
16 46 11 25 20 54 20 65 0 10 5 19 11 19 5 0 7 4 4 10 -3 5 1 24 10 41 11 20
12 28 4 24 -8 -5 -10 -4 -5 3 4 7 9 22 12 34 2 13 6 34 9 48 10 52 18 128 19
197 1 40 5 75 9 79 3 4 4 11 0 17 -3 6 -8 31 -10 56 -6 84 -9 107 -17 119 -4
7 -3 12 2 12 6 0 4 16 -3 37 -7 21 -11 46 -10 55 2 10 0 18 -4 18 -4 0 -8 6
-9 13 0 6 -3 19 -5 27 -2 8 -7 32 -12 53 -4 20 -12 37 -18 37 -6 0 -8 3 -4 6
3 3 1 18 -5 33 -5 14 -12 35 -14 46 -2 11 -8 21 -14 23 -5 2 -10 10 -10 17 0
17 -93 198 -110 215 -3 3 -23 31 -44 62 -22 32 -68 88 -103 125 -34 37 -63 71
-63 75 0 4 -4 8 -9 8 -5 0 -27 17 -49 38 -22 20 -50 44 -62 52 -21 14 -49 36
-77 60 -7 5 -17 10 -23 10 -5 0 -10 4 -10 9 0 5 -16 15 -35 22 -19 7 -35 17
-35 21 0 4 -9 8 -20 8 -20 0 -29 19 -10 21 14 2 30 6 33 9 1 1 16 3 32 5 31 3
92 12 135 20 30 6 93 15 135 20 17 2 31 4 33 5 1 2 11 3 21 4 11 0 23 4 26 8
4 4 17 3 28 -3 15 -9 18 -8 12 2 -6 9 -3 11 8 6 9 -3 19 -1 23 5 4 7 9 6 15
-3 6 -9 9 -10 9 -2 0 6 11 10 25 8 14 -1 25 1 25 4 0 4 8 7 18 8 25 1 117 12
117 13 0 1 11 3 25 5 14 2 43 7 65 10 22 4 55 7 73 8 17 1 32 6 32 10 0 5 10
7 23 6 12 -1 43 1 69 5 26 5 51 8 55 8 5 0 16 4 27 10 14 8 17 7 11 -3 -5 -8
-4 -10 4 -5 11 7 51 16 84 19 9 1 17 6 17 12 0 5 4 4 9 -4 7 -10 13 -11 31 -1
12 6 28 9 36 6 8 -3 14 -2 14 3 0 4 10 7 23 6 12 -1 27 0 32 4 6 3 19 6 30 7
38 4 110 13 110 14 0 2 33 7 83 13 18 3 36 7 39 10 3 4 10 4 15 1 6 -4 -7 -25
-29 -47z m-2113 -338 c22 -7 44 -11 122 -23 10 -1 21 -5 24 -9 4 -4 15 -7 25
-7 10 0 43 -11 74 -25 30 -13 58 -24 61 -23 9 1 79 -36 86 -47 4 -5 8 -6 8 -2
0 4 20 -6 44 -23 25 -16 49 -30 55 -30 6 0 11 -3 11 -7 0 -5 17 -19 38 -33 58
-39 137 -113 212 -200 33 -38 125 -183 123 -192 -2 -4 2 -8 8 -8 5 0 7 -4 4
-10 -3 -5 -1 -10 5 -10 6 0 8 -4 5 -10 -3 -5 -1 -10 5 -10 6 0 8 -4 5 -10 -3
-5 -1 -10 4 -10 6 0 10 -3 9 -7 0 -5 3 -17 7 -28 31 -76 43 -114 38 -119 -4
-3 -2 -6 3 -6 5 0 11 -14 12 -31 1 -17 7 -40 13 -50 5 -11 7 -24 4 -29 -3 -5
-1 -11 4 -14 5 -3 7 -15 4 -26 -3 -11 -1 -26 4 -33 10 -12 10 -284 0 -323 -8
-33 -19 -97 -20 -116 -1 -10 -5 -18 -9 -18 -4 0 -7 -3 -6 -7 2 -10 -13 -64
-21 -78 -3 -5 -7 -17 -8 -26 -1 -8 -9 -29 -18 -45 -8 -16 -15 -32 -15 -37 0
-4 -11 -25 -24 -46 -14 -21 -22 -42 -19 -45 4 -3 1 -6 -5 -6 -7 0 -12 -4 -12
-10 0 -12 -93 -143 -129 -183 -52 -58 -89 -93 -132 -127 -23 -19 -50 -42 -59
-50 -9 -8 -32 -24 -51 -34 -19 -11 -36 -22 -39 -25 -8 -10 -125 -66 -129 -63
-2 2 -7 0 -10 -5 -9 -13 -118 -53 -125 -46 -3 4 -6 1 -6 -6 0 -7 -5 -9 -10 -6
-6 4 -18 1 -27 -7 -9 -7 -18 -11 -20 -10 -2 2 -22 0 -46 -4 -69 -12 -89 -14
-144 -18 -29 -3 -56 -6 -60 -9 -4 -2 -17 -1 -28 3 -11 4 -30 4 -41 -1 -12 -4
-25 -5 -28 -2 -4 4 -30 8 -59 9 -28 1 -61 4 -72 7 -11 2 -38 8 -60 12 -22 4
-43 12 -47 18 -6 9 -8 9 -8 0 0 -9 -7 -10 -22 -4 -29 12 -62 23 -66 21 -1 0
-16 7 -32 15 -16 8 -32 15 -35 15 -10 0 -100 44 -126 61 -14 10 -29 16 -33 12
-3 -3 -6 -2 -6 3 0 5 -16 18 -35 28 -19 11 -35 23 -35 28 0 4 -7 8 -15 8 -8 0
-15 5 -15 10 0 6 -5 10 -10 10 -6 0 -21 10 -34 23 -13 12 -41 38 -62 58 -21
19 -59 59 -84 88 -25 30 -51 60 -58 67 -7 8 -10 14 -5 14 4 0 3 4 -3 8 -18 11
-93 139 -87 146 4 3 1 6 -5 6 -7 0 -12 5 -12 10 0 6 -8 28 -19 49 -10 22 -24
60 -32 85 -7 25 -16 46 -19 46 -3 0 -6 16 -8 36 -1 20 -5 41 -9 47 -4 6 -8 23
-10 37 -6 45 -9 59 -15 66 -4 3 -3 17 2 30 5 13 6 24 1 24 -8 0 -6 212 3 265
3 17 7 46 10 65 2 19 9 47 15 63 6 15 8 27 5 27 -3 0 -2 6 3 13 4 6 9 21 10
31 2 11 8 25 14 33 6 7 8 13 5 13 -4 0 -1 10 6 23 7 12 11 25 10 30 -1 4 3 7
9 7 5 0 7 5 4 11 -4 5 0 18 8 27 9 9 19 29 22 45 4 15 10 27 15 27 4 0 15 18
25 40 10 22 22 40 27 40 4 0 8 7 8 15 0 7 8 19 18 24 9 6 14 11 9 11 -17 0
179 207 206 216 9 3 15 10 12 15 -4 5 1 9 9 9 8 0 20 8 25 18 6 9 11 13 11 7
0 -6 3 -6 8 0 10 15 115 80 124 78 5 -2 8 2 8 8 0 5 5 7 10 4 6 -3 10 -3 10 2
0 9 91 49 103 45 4 -1 7 2 7 6 0 5 6 9 13 9 6 1 46 12 88 25 41 14 83 24 92
22 9 -1 17 1 17 5 0 4 14 7 30 6 17 -1 33 1 35 5 6 10 294 9 325 -1z m3256
-2520 c-4 -4 -3 -10 3 -13 7 -5 8 -13 2 -24 -5 -9 -5 -26 0 -39 5 -14 5 -23
-1 -23 -6 0 -6 -9 -1 -23 5 -13 6 -30 1 -37 -5 -7 -4 -25 1 -38 7 -18 6 -29
-2 -36 -9 -8 -10 -7 -4 4 7 12 6 13 -6 3 -8 -7 -37 -10 -67 -9 -28 2 -52 -1
-52 -6 0 -5 -5 -6 -11 -2 -16 9 -229 11 -229 1 0 -4 -5 -5 -11 -1 -16 10 -309
11 -309 1 0 -5 -5 -5 -11 -1 -16 10 -189 11 -189 1 0 -4 -5 -5 -12 -1 -18 11
-68 13 -68 2 0 -5 -5 -6 -11 -2 -16 10 -189 11 -189 1 0 -4 -5 -5 -11 -1 -16
10 -189 11 -189 1 0 -4 -5 -5 -12 -1 -18 11 -68 13 -68 2 0 -5 -5 -6 -12 -2
-18 11 -68 13 -68 2 0 -5 -5 -6 -12 -2 -18 11 -68 13 -68 2 0 -5 -5 -6 -11 -2
-16 10 -189 11 -189 1 0 -4 -5 -5 -11 -1 -16 10 -189 11 -189 1 0 -4 -5 -5
-12 -1 -18 11 -68 13 -68 2 0 -5 -5 -6 -12 -2 -18 11 -68 13 -68 2 0 -5 -5 -6
-12 -2 -18 11 -68 13 -68 2 0 -5 -5 -6 -11 -2 -15 9 -189 11 -189 2 0 -4 -7
-5 -16 -1 -9 3 -25 7 -37 8 -12 1 -24 3 -27 4 -3 0 -5 46 -5 100 -1 112 -4
108 90 117 22 2 51 6 65 9 14 4 39 8 55 10 17 2 44 6 60 9 17 3 50 9 75 12 24
3 54 8 65 10 41 6 111 17 135 19 14 2 25 4 25 5 0 1 14 3 30 5 17 2 46 6 65
10 19 3 51 8 70 10 56 8 64 10 78 18 7 5 12 3 12 -3 0 -6 5 -8 13 -3 6 4 21 8
32 9 11 1 33 4 49 7 25 5 62 11 126 20 8 2 20 6 27 10 6 4 15 3 18 -3 4 -7 11
-7 18 -2 7 5 19 10 27 10 8 0 24 3 35 5 33 8 118 19 148 20 15 0 27 3 27 6 0
4 12 7 28 7 15 1 43 5 62 8 38 7 103 16 135 20 11 1 25 4 30 7 6 3 27 5 47 5
21 -1 38 2 38 6 0 4 8 6 18 6 16 -1 60 5 137 18 53 9 128 21 185 29 14 1 25 4
25 5 0 1 14 3 30 5 41 4 105 13 135 20 26 6 81 14 140 19 19 2 46 7 60 10 14
3 42 8 64 10 21 3 41 8 45 11 3 4 8 -76 11 -177 3 -100 1 -186 -4 -189z
m-5091 -354 c33 -10 71 -26 85 -35 17 -10 22 -11 16 -2 -7 11 -4 11 15 0 13
-7 26 -15 29 -18 3 -3 16 -6 30 -8 14 -1 26 -7 28 -12 2 -5 10 -6 19 -3 8 3
18 2 22 -3 3 -5 38 -20 76 -32 39 -13 79 -27 90 -32 26 -11 57 -22 70 -26 6
-1 48 -16 95 -34 47 -17 99 -35 115 -39 17 -5 47 -15 68 -24 20 -9 37 -13 37
-9 0 4 4 1 8 -5 4 -7 17 -14 29 -16 12 -1 28 -9 37 -16 13 -11 16 -11 16 0 0
11 2 11 10 -1 5 -8 10 -11 10 -6 0 5 6 3 13 -3 8 -6 23 -12 35 -14 12 -2 25
-6 28 -10 4 -4 16 -7 26 -7 10 0 18 -4 18 -10 0 -5 11 -10 23 -10 13 0 27 -3
31 -7 3 -4 16 -8 28 -10 12 -2 26 -7 32 -11 6 -5 31 -14 56 -22 25 -7 49 -17
55 -22 5 -4 19 -8 31 -8 13 0 26 -4 29 -10 3 -5 15 -10 26 -10 10 0 27 -4 37
-9 39 -20 69 -32 82 -34 8 -2 21 -6 27 -10 13 -8 48 -18 71 -19 6 -1 12 -5 12
-10 0 -5 4 -6 10 -3 6 3 10 2 10 -3 0 -5 6 -9 13 -9 20 -1 141 -44 156 -56 12
-10 13 -9 6 3 -5 9 0 8 13 -4 12 -11 22 -15 22 -11 0 5 5 4 11 -2 6 -6 18 -9
25 -6 8 3 14 0 14 -6 0 -6 3 -10 8 -10 4 1 10 0 15 -1 4 -1 12 -4 17 -5 6 -1
12 -4 15 -5 3 -1 8 -3 13 -5 9 -2 42 -15 67 -25 11 -5 55 -20 99 -35 43 -14
92 -33 107 -41 16 -8 29 -12 29 -9 0 4 18 -2 95 -31 11 -4 23 -6 28 -6 4 1 7
-3 7 -9 0 -5 5 -7 10 -4 6 4 16 2 23 -3 7 -5 30 -15 52 -22 22 -7 45 -16 51
-21 6 -5 13 -6 16 -3 4 3 20 -2 38 -11 18 -9 39 -18 48 -20 10 -2 31 -9 47
-16 17 -6 39 -14 49 -16 11 -2 25 -8 32 -14 7 -6 18 -8 24 -4 5 3 10 1 10 -5
0 -6 4 -9 9 -5 5 3 12 1 16 -5 3 -5 17 -10 31 -10 13 0 24 -5 24 -11 0 -5 4
-8 8 -5 5 3 21 -2 36 -10 16 -7 37 -14 47 -14 10 0 20 -4 23 -8 3 -4 28 -14
56 -22 28 -8 53 -18 56 -22 3 -4 16 -8 29 -8 27 0 41 -15 24 -26 -7 -4 -10 -3
-7 2 4 5 -126 9 -315 8 -218 0 -327 3 -336 10 -9 7 -12 7 -9 1 8 -13 -570 -13
-591 -1 -9 6 -12 5 -8 0 4 -6 -39 -9 -111 -8 -64 1 -117 3 -117 4 0 1 -8 3
-18 5 -10 2 -26 7 -35 11 -9 4 -20 8 -24 9 -5 2 -10 4 -13 5 -3 1 -8 3 -12 5
-5 1 -17 5 -28 9 -77 30 -95 35 -95 28 0 -4 -4 -1 -9 6 -4 7 -18 14 -29 15
-12 1 -22 5 -22 9 0 4 -3 7 -7 6 -10 -3 -146 43 -153 51 -3 3 -14 7 -25 9 -19
3 -52 15 -87 33 -10 5 -24 9 -32 9 -8 0 -36 9 -62 20 -26 11 -54 22 -63 24 -9
2 -29 9 -46 15 -16 7 -49 19 -72 27 -23 8 -79 28 -125 45 -46 17 -87 32 -93
33 -5 2 -18 6 -27 10 -9 4 -22 9 -30 10 -7 2 -20 6 -28 9 -8 4 -53 20 -100 37
-47 17 -92 33 -100 37 -8 3 -21 7 -29 9 -7 1 -36 11 -65 22 -82 32 -90 35
-111 39 -10 2 -23 9 -27 16 -4 6 -8 9 -8 5 0 -5 -128 37 -180 59 -8 4 -19 7
-25 8 -5 0 -20 6 -31 13 -12 6 -24 9 -27 5 -13 -13 -17 25 -6 53 7 16 13 36
15 44 2 8 7 23 13 35 16 34 24 60 22 69 -1 4 3 13 8 20 5 6 11 22 13 36 1 14
10 30 18 37 8 7 12 13 8 13 -4 0 2 24 13 53 11 28 20 52 19 52 -1 0 3 13 9 28
6 16 11 33 11 39 0 7 5 7 13 1 6 -5 39 -17 72 -28z m1856 -169 c25 0 51 4 58
8 6 4 11 3 11 -1 0 -10 92 -9 108 1 7 4 12 3 12 -2 0 -10 92 -8 109 2 6 4 11
3 11 -1 0 -10 92 -9 108 1 7 4 12 3 12 -2 0 -10 92 -8 109 2 6 4 11 3 11 -1 0
-10 92 -9 108 1 7 4 12 3 12 -2 0 -10 92 -8 109 2 6 4 11 3 11 -1 0 -10 92 -9
108 1 7 4 12 3 12 -2 0 -10 92 -8 109 2 6 4 11 4 11 -1 0 -10 172 -9 188 1 7
4 12 3 12 -2 0 -10 92 -8 109 2 6 4 11 3 11 -1 0 -10 92 -9 108 1 7 4 12 3 12
-2 0 -10 92 -8 109 2 6 4 11 3 11 -1 0 -10 92 -9 108 1 7 4 12 3 12 -2 0 -10
92 -8 109 2 6 4 11 3 11 -1 0 -10 92 -9 108 1 7 4 12 3 12 -2 0 -10 92 -8 109
2 6 4 11 3 11 -1 0 -10 92 -9 108 1 7 4 12 3 12 -2 0 -10 92 -8 109 2 6 4 11
4 11 -1 0 -10 812 -9 829 1 6 4 11 3 11 -2 0 -10 92 -8 109 2 6 4 11 3 11 -1
0 -10 92 -9 108 1 7 4 12 3 12 -2 0 -10 92 -8 109 2 6 4 11 3 11 -1 0 -10 92
-9 108 1 7 4 12 3 12 -2 0 -10 92 -8 109 2 6 4 11 3 11 -1 0 -10 92 -9 108 1
7 4 12 3 12 -2 0 -10 92 -8 109 2 6 4 11 3 11 -1 0 -10 92 -9 108 1 7 4 12 3
12 -2 0 -10 92 -8 109 2 6 4 11 4 11 -1 0 -4 62 -7 137 -7 76 1 142 0 148 -3
11 -4 11 -102 0 -130 -2 -7 0 -13 5 -13 8 0 5 -38 -5 -67 -2 -7 -1 -13 3 -13
4 0 6 -57 4 -127 -1 -71 -3 -135 -2 -143 0 -8 0 -62 0 -120 0 -58 0 -112 0
-120 0 -8 0 -35 0 -60 -1 -65 -1 -63 1 -85 1 -11 1 -31 0 -45 l-1 -25 -715 0
c-393 0 -715 4 -715 8 0 5 -4 6 -9 2 -16 -9 -681 -11 -681 -1 0 5 -6 3 -13 -3
-8 -6 -17 -8 -20 -4 -4 3 -57 5 -119 4 -109 -1 -117 0 -238 41 -69 24 -127 45
-130 48 -3 3 -12 7 -20 9 -31 7 -36 8 -55 15 -11 4 -29 12 -40 16 -11 5 -49
19 -85 30 -36 12 -74 26 -85 30 -50 21 -193 70 -203 70 -7 0 -12 5 -12 11 0 5
-5 7 -10 4 -6 -4 -17 -1 -25 5 -8 7 -15 9 -15 5 0 -4 -6 -2 -13 4 -8 6 -17 8
-20 4 -4 -3 -7 -1 -7 6 0 7 -4 10 -8 7 -5 -3 -21 1 -36 9 -15 8 -30 14 -34 13
-4 -1 -20 4 -37 11 -43 18 -137 52 -155 56 -8 2 -17 4 -20 5 -3 1 -8 2 -12 1
-5 0 -8 4 -8 10 0 5 -3 8 -7 6 -5 -3 -19 0 -33 6 -14 5 -29 11 -35 13 -17 5
-99 34 -115 41 -8 3 -18 5 -22 5 -5 -1 -8 2 -8 7 0 5 -8 8 -17 7 -10 -2 -20 0
-23 3 -5 6 -92 39 -122 46 -9 2 -25 8 -36 14 -11 6 -22 7 -26 4 -3 -3 -6 -1
-6 5 0 7 -3 11 -7 10 -8 -2 -81 21 -98 31 -5 3 -14 6 -20 7 -25 4 -40 9 -45
14 -3 3 -33 14 -67 25 -35 10 -63 22 -63 26 0 4 -9 5 -20 2 -11 -3 -20 -1 -20
5 0 5 -12 12 -27 15 -16 3 -41 11 -58 18 -16 7 -33 13 -37 14 -5 2 -9 3 -10 5
-2 1 -10 3 -18 5 -8 2 -28 9 -45 16 -16 6 -35 13 -42 15 -41 8 -48 22 -48 99
0 68 1 76 17 72 10 -3 18 0 18 6 0 8 3 9 8 2 4 -6 28 -10 53 -9z m7023 -358
c-4 -6 -8 -153 -9 -327 -2 -174 -4 -320 -5 -326 -1 -5 -2 -12 -1 -15 8 -20 4
-140 -4 -140 -7 0 -7 -3 0 -8 10 -7 15 -72 5 -72 -7 0 -3 -150 4 -157 3 -3 3
-10 0 -15 -3 -5 -7 -104 -8 -219 0 -132 -5 -209 -11 -209 -5 0 -23 12 -40 26
-16 14 -43 35 -58 47 -16 12 -36 29 -45 38 -10 8 -39 33 -67 55 -27 21 -55 44
-61 49 -7 6 -31 26 -54 44 -23 19 -48 41 -56 48 -7 7 -16 13 -21 13 -5 0 -15
9 -23 20 -8 11 -18 20 -22 20 -11 0 -75 63 -87 87 -7 15 -8 24 -1 28 6 4 7 12
3 18 -10 17 -11 79 -1 99 4 9 5 19 1 21 -7 5 -10 358 -3 382 1 6 1 12 0 15 -6
17 -7 40 -1 40 3 0 20 12 37 28 34 30 54 46 134 112 30 25 60 50 66 55 6 6 49
42 94 80 46 39 92 78 102 88 10 9 18 15 18 12 0 -4 54 42 84 71 13 14 39 6 30
-8z m-2179 -90 c4 0 12 6 16 14 5 7 9 8 9 2 0 -14 30 -14 30 0 0 6 4 5 9 -2 4
-8 12 -14 16 -14 4 0 12 6 16 14 5 7 9 9 9 3 0 -6 30 -10 70 -10 38 0 70 4 70
8 0 5 5 5 11 1 17 -10 149 -11 149 -1 0 4 5 5 11 1 17 -10 149 -11 149 -1 0 4
5 5 12 1 17 -11 142 -11 150 1 17 24 23 -52 23 -282 l-1 -248 -53 0 c-29 0
-55 3 -57 7 -3 5 -14 4 -24 -2 -10 -6 -21 -7 -23 -3 -3 5 -145 8 -316 8 l-311
0 -1 65 c-2 234 1 442 7 451 4 8 9 8 14 -1 4 -6 11 -12 15 -12z m1285 -512 c0
-5 6 -3 14 3 10 9 16 7 27 -5 11 -13 10 -17 -2 -25 -8 -5 -9 -9 -4 -9 8 0 11
-44 6 -92 -1 -7 -41 1 -56 12 -5 4 -23 11 -40 15 -16 5 -34 9 -40 11 -5 2 -30
8 -55 14 -25 7 -52 14 -60 18 -20 7 -28 9 -42 11 -9 1 -9 4 0 13 15 15 16 32
2 23 -5 -3 -10 -4 -10 0 0 14 46 20 149 20 61 0 111 -4 111 -9z"/>
</g>
</svg>
